<?xml version="1.0" encoding="utf-8"?>
<!-- Generator: Adobe Illustrator 27.9.0, SVG Export Plug-In . SVG Version: 6.00 Build 0)  -->
<svg version="1.1" id="Capa_1" xmlns="http://www.w3.org/2000/svg" xmlns:xlink="http://www.w3.org/1999/xlink" x="0px" y="0px"
	 viewBox="0 0 1200 1200" style="enable-background:new 0 0 1200 1200;" xml:space="preserve">
<style type="text/css">
	.st0{fill:#CE172E;}
	.st1{fill:#BFBEBE;}
	.st2{fill:#6D0A16;}
	.st3{fill:#37A6DE;}
	.st4{fill:#FFFFFF;}
	.st5{fill:#070707;}
	.st6{fill:#662482;}
	.st7{fill:#89DB3B;}
	.st8{fill:#0B0B5E;}
</style>
<g>
	<g>
		<path class="st2" d="M478.5,799h44.4v160.3h-44.4V799z"/>
		<path class="st2" d="M552.3,799h46.9l38.2,62.1l38.2-62.1h46.9v160.3h-44.2v-92.1l-41,62.7h-0.9l-40.8-62.5v91.8h-43.5V799z"/>
	</g>
	<g>
		<g>
			<g>
				<path class="st2" d="M668,572.6c-3.5-9.7-9.1-18.8-16.9-26.6c-7.1-7.1-15.4-12.4-24.2-16c-26-10.4-57-5.1-78,16
					c-13.7,13.7-21.2,31.8-21.2,51.1c0,19.3,7.5,37.5,21.2,51.1c13.7,13.7,31.8,21.2,51.1,21.2c19.3,0,37.5-7.5,51.1-21.2
					C671.5,627.8,677.2,598.2,668,572.6z M600,615.2c-4.8,0-9.4-1.9-12.8-5.3c-3.4-3.4-5.3-7.9-5.3-12.8c0-4.8,1.9-9.4,5.3-12.8
					c0.1-0.1,0.1-0.1,0.2-0.2c3.5-3.4,8-5.1,12.6-5.1c4.6,0,9.3,1.8,12.8,5.3c7,7,7,18.5,0,25.5c-0.1,0.1-0.2,0.2-0.2,0.2
					C609.2,613.4,604.7,615.2,600,615.2z"/>
			</g>
			<g>
				<path class="st2" d="M668,344.5c-3.5,9.7-9.1,18.8-16.9,26.6c-7,7-15.2,12.4-24.2,16c-8.4,3.4-17.6,5.2-26.9,5.2
					c-19.3,0-37.5-7.5-51.1-21.2l0,0l38.3-38.3l0,0c0.1,0.1,0.2,0.2,0.2,0.2c1.6,1.6,3.6,2.8,5.6,3.7c2.2,0.9,4.5,1.4,6.9,1.4
					c4.8,0,9.4-1.9,12.8-5.3c7-7,7-18.5,0-25.5c-0.1-0.1-0.1-0.1-0.2-0.2c-3.5-3.4-8-5.1-12.5-5.1c-4.6,0-9.3,1.8-12.8,5.3l0,0
					l-38.3-38.3l0,0c28.2-28.2,74-28.2,102.2,0C671.5,289.3,677.2,319,668,344.5z"/>
			</g>
		</g>
		<g>
			<path class="st2" d="M739.6,413.6c-22.3,2-39.9,20.1-41.1,42.6L627,387.1c8.9-3.6,17.1-9,24.2-16c7.8-7.8,13.4-16.9,16.9-26.6
				L739.6,413.6z"/>
			<path class="st2" d="M739.6,503.6L668,572.6c-3.5-9.7-9.1-18.8-16.9-26.6c-7.1-7.1-15.4-12.4-24.2-16l71.6-69.1
				C699.7,483.5,717.3,501.6,739.6,503.6z"/>
			<path class="st2" d="M786.2,458.6l-46.6,45c-22.3-2-39.9-20.1-41.1-42.6l2.5-2.4l-2.5-2.4c1.2-22.5,18.8-40.6,41.1-42.6
				L786.2,458.6z"/>
		</g>
		<g>
			<g>
				<path class="st1" d="M788.8,458.6c0,24.9-20.2,45.2-45.2,45.2c-1.4,0-2.7-0.1-4-0.2c-22.3-2-39.9-20.1-41.1-42.6
					c0-0.8-0.1-1.6-0.1-2.4c0-0.8,0-1.6,0.1-2.4c1.2-22.5,18.8-40.6,41.1-42.6c1.3-0.1,2.7-0.2,4-0.2
					C768.6,413.4,788.8,433.6,788.8,458.6z"/>
			</g>
			<g>
				<circle class="st1" cx="456.4" cy="458.6" r="45.2"/>
			</g>
			<g>
				<circle class="st2" cx="600" cy="456.2" r="24.5"/>
			</g>
		</g>
		<g>
			<path class="st2" d="M600,748.2c-39.1,0-77-7.7-112.7-22.8c-34.5-14.6-65.5-35.5-92-62.1c-26.6-26.6-47.5-57.6-62.1-92
				c-15.1-35.7-22.8-73.6-22.8-112.7c0-39.1,7.7-77,22.8-112.7c14.6-34.5,35.5-65.5,62.1-92c26.6-26.6,57.6-47.5,92-62.1
				C523,176.7,560.9,169,600,169s77,7.7,112.7,22.8c34.5,14.6,65.5,35.5,92,62.1c26.6,26.6,47.5,57.6,62.1,92
				c15.1,35.7,22.8,73.6,22.8,112.7c0,39.1-7.7,77-22.8,112.7c-14.6,34.5-35.5,65.5-62.1,92c-26.6,26.6-57.6,47.5-92,62.1
				C677,740.5,639.1,748.2,600,748.2z M600,213c-65.6,0-127.3,25.5-173.7,71.9S354.4,393,354.4,458.6c0,65.6,25.5,127.3,71.9,173.7
				s108.1,71.9,173.7,71.9s127.3-25.5,173.7-71.9s71.9-108.1,71.9-173.7c0-65.6-25.5-127.3-71.9-173.7S665.6,213,600,213z"/>
		</g>
	</g>
</g>
<g>
	<path class="st2" d="M252.9,1005.5h11.7v42.2h-11.7V1005.5z"/>
	<path class="st2" d="M271.7,1015.1h11.4v4.6c2.1-2.7,5.1-5.3,9.8-5.3c7,0,11.1,4.5,11.1,12v21.3h-11.4V1030c0-3.6-1.8-5.5-4.6-5.5
		c-2.8,0-4.8,1.9-4.8,5.5v17.7h-11.4V1015.1z"/>
	<path class="st2" d="M309.6,1053.7l3.7-7.6c3.6,1.9,7,3.1,11.4,3.1c5.7,0,8.5-2.8,8.5-8v-1.3c-2.3,2.7-5.2,4.9-10,4.9
		c-8,0-14.5-5.8-14.5-15.1v-0.1c0-9.4,6.6-15.2,14.1-15.2c5,0,7.8,2,10.2,4.6v-3.9h11.4v24.8c0,5.9-1.4,10.2-4.2,13
		c-3,3.1-7.5,4.6-14.3,4.6C319.6,1057.4,314.4,1056.1,309.6,1053.7z M333.2,1029.7v-0.1c0-3.6-2.8-6.3-6.7-6.3
		c-3.9,0-6.7,2.7-6.7,6.4v0.1c0,3.6,2.8,6.3,6.7,6.3S333.2,1033.3,333.2,1029.7z"/>
	<path class="st2" d="M349.3,1031.5v-0.1c0-9.5,6.8-17,16.4-17c11.2,0,16.4,8.3,16.4,17.8c0,0.7,0,1.6-0.1,2.3h-21.8
		c0.9,3.6,3.4,5.4,7,5.4c2.8,0,4.9-1,7.2-3.3l6.3,5.2c-3.1,4-7.6,6.6-14.1,6.6C356.5,1048.5,349.3,1041.6,349.3,1031.5z
		 M371.5,1028.7c-0.4-3.6-2.6-5.9-5.7-5.9c-3.1,0-5,2.3-5.7,5.9H371.5z"/>
	<path class="st2" d="M387.1,1015.1h11.4v4.6c2.1-2.7,5.1-5.3,9.8-5.3c7,0,11.1,4.5,11.1,12v21.3H408V1030c0-3.6-1.8-5.5-4.6-5.5
		s-4.8,1.9-4.8,5.5v17.7h-11.4V1015.1z"/>
	<path class="st2" d="M425.3,1003.7h11.9v8.4h-11.9V1003.7z M425.6,1015.1H437v32.6h-11.4V1015.1z"/>
	<path class="st2" d="M442.1,1031.5v-0.1c0-9.5,6.8-17,16.4-17c11.2,0,16.4,8.3,16.4,17.8c0,0.7,0,1.6-0.1,2.3h-21.8
		c0.9,3.6,3.4,5.4,7,5.4c2.8,0,4.9-1,7.2-3.3l6.3,5.2c-3.1,4-7.6,6.6-14.1,6.6C449.4,1048.5,442.1,1041.6,442.1,1031.5z
		 M464.3,1028.7c-0.4-3.6-2.6-5.9-5.7-5.9c-3.1,0-5,2.3-5.7,5.9H464.3z"/>
	<path class="st2" d="M479.9,1015.1h11.4v6.6c1.9-4.4,4.8-7.3,10.3-7.1v12h-1c-6,0-9.3,3.4-9.3,10.9v10.2h-11.4V1015.1z"/>
	<path class="st2" d="M506,1015.1h11.4v32.6H506V1015.1z M513.6,1001.2l10.6,3.4l-8.9,7.7h-8L513.6,1001.2z"/>
	<path class="st2" d="M522.3,1038.3v-0.1c0-6.8,5.1-10.2,12.8-10.2c3.1,0,6,0.5,7.8,1.3v-0.5c0-3.4-2.1-5.4-6.5-5.4
		c-3.4,0-6.1,0.7-9,1.8l-2.3-8c3.7-1.5,7.6-2.5,13.2-2.5c5.8,0,9.8,1.4,12.4,4c2.5,2.4,3.5,5.8,3.5,10.4v18.7h-11.3v-3.4
		c-2.3,2.5-5.3,4.2-9.6,4.2C527,1048.4,522.3,1044.8,522.3,1038.3z M543,1035.9v-1.5c-1.2-0.5-2.8-0.8-4.5-0.8c-3.4,0-5.2,1.6-5.2,4
		v0.1c0,2.2,1.7,3.6,4,3.6C540.6,1041.2,543,1039.2,543,1035.9z"/>
	<path class="st2" d="M578.6,1005.5H591l10.1,16.3l10.1-16.3h12.3v42.2h-11.6v-24.2l-10.8,16.5h-0.2l-10.7-16.4v24.2h-11.4V1005.5z"
		/>
	<path class="st2" d="M629,1031.5v-0.1c0-9.5,6.8-17,16.4-17c11.2,0,16.4,8.3,16.4,17.8c0,0.7,0,1.6-0.1,2.3H640
		c0.9,3.6,3.4,5.4,7,5.4c2.8,0,4.9-1,7.2-3.3l6.3,5.2c-3.1,4-7.6,6.6-14.1,6.6C636.2,1048.5,629,1041.6,629,1031.5z M651.2,1028.7
		c-0.4-3.6-2.6-5.9-5.7-5.9c-3.1,0-5,2.3-5.7,5.9H651.2z"/>
	<path class="st2" d="M665.5,1031.5v-0.1c0-9.2,7.1-17,17.4-17c6.7,0,11.1,2.9,13.9,7.2l-7.7,5.8c-1.6-2.1-3.4-3.4-6.1-3.4
		c-3.7,0-6.4,3.3-6.4,7.3v0.1c0,4.2,2.7,7.4,6.5,7.4c2.8,0,4.5-1.3,6.3-3.4l7.7,5.5c-3.1,4.5-7.3,7.5-14.5,7.5
		C672.7,1048.5,665.5,1040.8,665.5,1031.5z"/>
	<path class="st2" d="M699.5,1038.3v-0.1c0-6.8,5.1-10.2,12.8-10.2c3.1,0,6,0.5,7.8,1.3v-0.5c0-3.4-2.1-5.4-6.5-5.4
		c-3.4,0-6.1,0.7-9,1.8l-2.3-8c3.7-1.5,7.6-2.5,13.2-2.5c5.8,0,9.8,1.4,12.4,4c2.5,2.4,3.5,5.8,3.5,10.4v18.7H720v-3.4
		c-2.3,2.5-5.3,4.2-9.6,4.2C704.2,1048.4,699.5,1044.8,699.5,1038.3z M720.2,1035.9v-1.5c-1.2-0.5-2.8-0.8-4.5-0.8
		c-3.4,0-5.2,1.6-5.2,4v0.1c0,2.2,1.7,3.6,4,3.6C717.9,1041.2,720.2,1039.2,720.2,1035.9z"/>
	<path class="st2" d="M738.9,1037.6v-13.3H735v-9.2h3.9v-8.3h11.4v8.3h7.6v9.2h-7.6v11.1c0,2.3,1,3.3,3.1,3.3c1.5,0,3-0.4,4.3-1.1
		v8.9c-2.1,1.1-4.8,1.9-8,1.9C742.9,1048.3,738.9,1045.3,738.9,1037.6z"/>
	<path class="st2" d="M762.8,1015.1h11.4v6.6c1.9-4.4,4.8-7.3,10.3-7.1v12h-1c-6,0-9.3,3.4-9.3,10.9v10.2h-11.4V1015.1z"/>
	<path class="st2" d="M786.7,1031.5v-0.1c0-9.3,7.6-17,18-17s18,7.7,18,16.9v0.1c0,9.3-7.7,17-18.1,17
		C794.2,1048.5,786.7,1040.9,786.7,1031.5z M811.6,1031.5v-0.1c0-4-2.9-7.4-7-7.4c-4.2,0-6.8,3.3-6.8,7.3v0.1c0,4,2.9,7.3,6.9,7.3
		C808.9,1038.8,811.6,1035.5,811.6,1031.5z M806.5,1000.9l10.6,3.4l-8.9,7.7h-8L806.5,1000.9z"/>
	<path class="st2" d="M827.5,1015.1h11.4v4.6c2.1-2.7,5.1-5.3,9.8-5.3c7,0,11.1,4.5,11.1,12v21.3h-11.4V1030c0-3.6-1.8-5.5-4.6-5.5
		c-2.8,0-4.8,1.9-4.8,5.5v17.7h-11.4V1015.1z"/>
	<path class="st2" d="M865.7,1003.7h11.9v8.4h-11.9V1003.7z M866,1015.1h11.4v32.6H866V1015.1z"/>
	<path class="st2" d="M882.5,1031.5v-0.1c0-9.2,7.1-17,17.4-17c6.7,0,11.1,2.9,13.9,7.2l-7.7,5.8c-1.6-2.1-3.4-3.4-6.1-3.4
		c-3.7,0-6.4,3.3-6.4,7.3v0.1c0,4.2,2.7,7.4,6.5,7.4c2.8,0,4.5-1.3,6.3-3.4l7.7,5.5c-3.1,4.5-7.3,7.5-14.5,7.5
		C889.7,1048.5,882.5,1040.8,882.5,1031.5z"/>
	<path class="st2" d="M916.5,1038.3v-0.1c0-6.8,5.1-10.2,12.8-10.2c3.1,0,6,0.5,7.8,1.3v-0.5c0-3.4-2.1-5.4-6.5-5.4
		c-3.4,0-6.1,0.7-9,1.8l-2.3-8c3.7-1.5,7.6-2.5,13.2-2.5c5.8,0,9.8,1.4,12.4,4c2.5,2.4,3.5,5.8,3.5,10.4v18.7h-11.3v-3.4
		c-2.3,2.5-5.3,4.2-9.6,4.2C921.2,1048.4,916.5,1044.8,916.5,1038.3z M937.2,1035.9v-1.5c-1.2-0.5-2.8-0.8-4.5-0.8
		c-3.4,0-5.2,1.6-5.2,4v0.1c0,2.2,1.7,3.6,4,3.6C934.9,1041.2,937.2,1039.2,937.2,1035.9z"/>
</g>
</svg>
