<?xml version="1.0" encoding="utf-8"?>
<!-- Generator: Adobe Illustrator 27.9.0, SVG Export Plug-In . SVG Version: 6.00 Build 0)  -->
<svg version="1.1" id="Capa_1" xmlns="http://www.w3.org/2000/svg" xmlns:xlink="http://www.w3.org/1999/xlink" x="0px" y="0px"
	 viewBox="0 0 1200 1200" style="enable-background:new 0 0 1200 1200;" xml:space="preserve">
<style type="text/css">
	.st0{fill:#CE172E;}
	.st1{fill:#BFBEBE;}
	.st2{fill:#6D0A16;}
	.st3{fill:#37A6DE;}
	.st4{fill:#FFFFFF;}
	.st5{fill:#070707;}
	.st6{fill:#662482;}
	.st7{fill:#89DB3B;}
	.st8{fill:#0B0B5E;}
</style>
<g>
	<g>
		<path class="st7" d="M420,799h44.4v160.3H420V799z"/>
		<path class="st7" d="M493.7,799h75.8c24.7,0,41.4,6.4,52.2,17.2c9.4,9.4,14.2,22,14.2,37.3v0.5c0,24.7-12.8,41-33,49.5l38.2,55.9
			h-51.1l-32.3-48.5h-19.7v48.5h-44.4V799z M567.7,876c14.9,0,23.8-7.3,23.8-19v-0.5c0-12.8-9.4-19.2-24-19.2h-29.3V876H567.7z"/>
		<path class="st7" d="M697.6,838h-47.9V799h140.4V838H742v121.4h-44.4V838z"/>
	</g>
	<g>
		<path class="st1" d="M744.2,366.9l-27.6,27.7c10.5,19,16.4,40.8,16.4,64c0,73.4-59.5,133-133,133s-133-59.5-133-133
			c0-23.2,5.9-45,16.4-64l-27.6-27.7c-16.9,26.5-26.7,57.9-26.7,91.7c0,94.4,76.5,170.9,170.9,170.9S770.9,553,770.9,458.6
			C770.9,424.9,761.1,393.4,744.2,366.9z M744.2,366.9l-27.6,27.7c10.5,19,16.4,40.8,16.4,64c0,73.4-59.5,133-133,133
			s-133-59.5-133-133c0-23.2,5.9-45,16.4-64l-27.6-27.7c-16.9,26.5-26.7,57.9-26.7,91.7c0,94.4,76.5,170.9,170.9,170.9
			S770.9,553,770.9,458.6C770.9,424.9,761.1,393.4,744.2,366.9z M744.2,366.9l-27.6,27.7c10.5,19,16.4,40.8,16.4,64
			c0,73.4-59.5,133-133,133s-133-59.5-133-133c0-23.2,5.9-45,16.4-64l-27.6-27.7c-16.9,26.5-26.7,57.9-26.7,91.7
			c0,94.4,76.5,170.9,170.9,170.9S770.9,553,770.9,458.6C770.9,424.9,761.1,393.4,744.2,366.9z M744.2,366.9l-27.6,27.7
			c10.5,19,16.4,40.8,16.4,64c0,73.4-59.5,133-133,133s-133-59.5-133-133c0-23.2,5.9-45,16.4-64l-27.6-27.7
			c-16.9,26.5-26.7,57.9-26.7,91.7c0,94.4,76.5,170.9,170.9,170.9S770.9,553,770.9,458.6C770.9,424.9,761.1,393.4,744.2,366.9z
			 M744.2,366.9l-27.6,27.7c10.5,19,16.4,40.8,16.4,64c0,73.4-59.5,133-133,133s-133-59.5-133-133c0-23.2,5.9-45,16.4-64l-27.6-27.7
			c-16.9,26.5-26.7,57.9-26.7,91.7c0,94.4,76.5,170.9,170.9,170.9S770.9,553,770.9,458.6C770.9,424.9,761.1,393.4,744.2,366.9z
			 M744.2,366.9l-27.6,27.7c10.5,19,16.4,40.8,16.4,64c0,73.4-59.5,133-133,133s-133-59.5-133-133c0-23.2,5.9-45,16.4-64l-27.6-27.7
			c-16.9,26.5-26.7,57.9-26.7,91.7c0,94.4,76.5,170.9,170.9,170.9S770.9,553,770.9,458.6C770.9,424.9,761.1,393.4,744.2,366.9z
			 M744.2,366.9l-27.6,27.7c10.5,19,16.4,40.8,16.4,64c0,73.4-59.5,133-133,133s-133-59.5-133-133c0-23.2,5.9-45,16.4-64l-27.6-27.7
			c-16.9,26.5-26.7,57.9-26.7,91.7c0,94.4,76.5,170.9,170.9,170.9S770.9,553,770.9,458.6C770.9,424.9,761.1,393.4,744.2,366.9z
			 M744.2,366.9l-27.6,27.7c10.5,19,16.4,40.8,16.4,64c0,73.4-59.5,133-133,133s-133-59.5-133-133c0-23.2,5.9-45,16.4-64l-27.6-27.7
			c-16.9,26.5-26.7,57.9-26.7,91.7c0,94.4,76.5,170.9,170.9,170.9S770.9,553,770.9,458.6C770.9,424.9,761.1,393.4,744.2,366.9z
			 M828.3,282.8L798,313.1c30,40.7,47.7,91,47.7,145.5c0,135.7-110,245.6-245.6,245.6s-245.6-110-245.6-245.6
			c0-54.4,17.7-104.7,47.7-145.5l-30.3-30.3c-37.5,48.6-59.8,109.6-59.8,175.8c0,159.1,129,288.1,288.1,288.1s288.1-129,288.1-288.1
			C888.1,392.4,865.8,331.5,828.3,282.8z M600,629.4c94.4,0,170.9-76.5,170.9-170.9c0-33.7-9.8-65.2-26.7-91.7l-27.6,27.7
			c10.5,19,16.4,40.8,16.4,64c0,73.4-59.5,133-133,133s-133-59.5-133-133c0-23.2,5.9-45,16.4-64l-27.6-27.7
			c-16.9,26.5-26.7,57.9-26.7,91.7C429.1,553,505.6,629.4,600,629.4z M744.2,366.9l-27.6,27.7c10.5,19,16.4,40.8,16.4,64
			c0,73.4-59.5,133-133,133s-133-59.5-133-133c0-23.2,5.9-45,16.4-64l-27.6-27.7c-16.9,26.5-26.7,57.9-26.7,91.7
			c0,94.4,76.5,170.9,170.9,170.9S770.9,553,770.9,458.6C770.9,424.9,761.1,393.4,744.2,366.9z M744.2,366.9l-27.6,27.7
			c10.5,19,16.4,40.8,16.4,64c0,73.4-59.5,133-133,133s-133-59.5-133-133c0-23.2,5.9-45,16.4-64l-27.6-27.7
			c-16.9,26.5-26.7,57.9-26.7,91.7c0,94.4,76.5,170.9,170.9,170.9S770.9,553,770.9,458.6C770.9,424.9,761.1,393.4,744.2,366.9z
			 M744.2,366.9l-27.6,27.7c10.5,19,16.4,40.8,16.4,64c0,73.4-59.5,133-133,133s-133-59.5-133-133c0-23.2,5.9-45,16.4-64l-27.6-27.7
			c-16.9,26.5-26.7,57.9-26.7,91.7c0,94.4,76.5,170.9,170.9,170.9S770.9,553,770.9,458.6C770.9,424.9,761.1,393.4,744.2,366.9z
			 M744.2,366.9l-27.6,27.7c10.5,19,16.4,40.8,16.4,64c0,73.4-59.5,133-133,133s-133-59.5-133-133c0-23.2,5.9-45,16.4-64l-27.6-27.7
			c-16.9,26.5-26.7,57.9-26.7,91.7c0,94.4,76.5,170.9,170.9,170.9S770.9,553,770.9,458.6C770.9,424.9,761.1,393.4,744.2,366.9z
			 M744.2,366.9l-27.6,27.7c10.5,19,16.4,40.8,16.4,64c0,73.4-59.5,133-133,133s-133-59.5-133-133c0-23.2,5.9-45,16.4-64l-27.6-27.7
			c-16.9,26.5-26.7,57.9-26.7,91.7c0,94.4,76.5,170.9,170.9,170.9S770.9,553,770.9,458.6C770.9,424.9,761.1,393.4,744.2,366.9z
			 M744.2,366.9l-27.6,27.7c10.5,19,16.4,40.8,16.4,64c0,73.4-59.5,133-133,133s-133-59.5-133-133c0-23.2,5.9-45,16.4-64l-27.6-27.7
			c-16.9,26.5-26.7,57.9-26.7,91.7c0,94.4,76.5,170.9,170.9,170.9S770.9,553,770.9,458.6C770.9,424.9,761.1,393.4,744.2,366.9z
			 M744.2,366.9l-27.6,27.7c10.5,19,16.4,40.8,16.4,64c0,73.4-59.5,133-133,133s-133-59.5-133-133c0-23.2,5.9-45,16.4-64l-27.6-27.7
			c-16.9,26.5-26.7,57.9-26.7,91.7c0,94.4,76.5,170.9,170.9,170.9S770.9,553,770.9,458.6C770.9,424.9,761.1,393.4,744.2,366.9z"/>
		<g>
			<circle class="st7" cx="600" cy="666.8" r="37.4"/>
			<circle class="st7" cx="747.3" cy="605.8" r="37.4"/>
			<circle class="st7" cx="452.7" cy="605.8" r="37.4"/>
			<circle class="st7" cx="808.3" cy="458.6" r="37.4"/>
			<circle class="st7" cx="391.7" cy="458.6" r="37.4"/>
		</g>
		<path class="st7" d="M682.5,458.6c0,45.6-36.9,82.5-82.5,82.5s-82.5-36.9-82.5-82.5c0-9,1.5-17.7,4.1-25.8l32.6,32.6
			c2.9,20.2,18.9,36.1,39.1,39.1c2.2,0.3,4.4,0.5,6.7,0.5s4.5-0.2,6.7-0.5c20.2-2.9,36.1-18.9,39.1-39.1l32.6-32.6
			C681,440.9,682.5,449.6,682.5,458.6z"/>
		<path class="st7" d="M699.2,370.1l-35.8,35.8c-15.1-18.2-37.9-29.8-63.4-29.8s-48.3,11.6-63.4,29.8l-35.8-35.8
			c24.3-27.3,59.8-44.4,99.2-44.4S674.8,342.8,699.2,370.1z"/>
		<path class="st7" d="M637.6,431.6L600,469.3l-37.6-37.6c8.4-11.7,22.1-19.3,37.6-19.3S629.2,419.9,637.6,431.6z"/>
		<path class="st7" d="M810,259.2L779,290.3l0,0L726,343.2c-31.2-34.1-76.1-55.5-126-55.5s-94.8,21.4-126,55.5l-52.9-52.9l0,0
			L390,259.2c1.7-1.8,3.5-3.6,5.3-5.4c26.6-26.6,57.6-47.5,92-62.1C523,176.7,560.9,169,600,169s77,7.7,112.7,22.8
			c34.5,14.6,65.5,35.5,92,62.1C806.6,255.6,808.3,257.4,810,259.2z"/>
	</g>
</g>
<g>
	<path class="st7" d="M273.1,1005.5h11.7v42.2h-11.7V1005.5z"/>
	<path class="st7" d="M291.8,1015.1h11.4v4.6c2.1-2.7,5.1-5.3,9.8-5.3c7,0,11.1,4.5,11.1,12v21.3h-11.4V1030c0-3.6-1.8-5.5-4.6-5.5
		c-2.8,0-4.8,1.9-4.8,5.5v17.7h-11.4V1015.1z"/>
	<path class="st7" d="M329.7,1053.7l3.7-7.6c3.6,1.9,7,3.1,11.4,3.1c5.7,0,8.5-2.8,8.5-8v-1.3c-2.3,2.7-5.2,4.9-10,4.9
		c-8,0-14.5-5.8-14.5-15.1v-0.1c0-9.4,6.6-15.2,14.1-15.2c5,0,7.8,2,10.2,4.6v-3.9h11.4v24.8c0,5.9-1.4,10.2-4.2,13
		c-3,3.1-7.5,4.6-14.3,4.6C339.7,1057.4,334.5,1056.1,329.7,1053.7z M353.4,1029.7v-0.1c0-3.6-2.8-6.3-6.7-6.3
		c-3.9,0-6.7,2.7-6.7,6.4v0.1c0,3.6,2.8,6.3,6.7,6.3S353.4,1033.3,353.4,1029.7z"/>
	<path class="st7" d="M369.4,1031.5v-0.1c0-9.5,6.8-17,16.4-17c11.2,0,16.4,8.3,16.4,17.8c0,0.7,0,1.6-0.1,2.3h-21.8
		c0.9,3.6,3.4,5.4,7,5.4c2.8,0,4.9-1,7.2-3.3l6.3,5.2c-3.1,4-7.6,6.6-14.1,6.6C376.7,1048.5,369.4,1041.6,369.4,1031.5z
		 M391.6,1028.7c-0.4-3.6-2.6-5.9-5.7-5.9c-3.1,0-5,2.3-5.7,5.9H391.6z"/>
	<path class="st7" d="M407.2,1015.1h11.4v4.6c2.1-2.7,5.1-5.3,9.8-5.3c7,0,11.1,4.5,11.1,12v21.3h-11.4V1030c0-3.6-1.8-5.5-4.6-5.5
		c-2.8,0-4.8,1.9-4.8,5.5v17.7h-11.4V1015.1z"/>
	<path class="st7" d="M445.5,1003.7h11.9v8.4h-11.9V1003.7z M445.7,1015.1h11.4v32.6h-11.4V1015.1z"/>
	<path class="st7" d="M462.3,1031.5v-0.1c0-9.5,6.8-17,16.4-17c11.2,0,16.4,8.3,16.4,17.8c0,0.7,0,1.6-0.1,2.3h-21.8
		c0.9,3.6,3.4,5.4,7,5.4c2.8,0,4.9-1,7.2-3.3l6.3,5.2c-3.1,4-7.6,6.6-14.1,6.6C469.5,1048.5,462.3,1041.6,462.3,1031.5z
		 M484.4,1028.7c-0.4-3.6-2.6-5.9-5.7-5.9c-3.1,0-5,2.3-5.7,5.9H484.4z"/>
	<path class="st7" d="M500,1015.1h11.4v6.6c1.9-4.4,4.8-7.3,10.3-7.1v12h-1c-6,0-9.3,3.4-9.3,10.9v10.2H500V1015.1z"/>
	<path class="st7" d="M526.1,1015.1h11.4v32.6h-11.4V1015.1z M533.8,1001.2l10.6,3.4l-8.9,7.7h-8L533.8,1001.2z"/>
	<path class="st7" d="M542.4,1038.3v-0.1c0-6.8,5.1-10.2,12.8-10.2c3.1,0,6,0.5,7.8,1.3v-0.5c0-3.4-2.1-5.4-6.5-5.4
		c-3.4,0-6.1,0.7-9,1.8l-2.3-8c3.7-1.5,7.6-2.5,13.2-2.5c5.8,0,9.8,1.4,12.4,4c2.5,2.4,3.5,5.8,3.5,10.4v18.7h-11.3v-3.4
		c-2.3,2.5-5.3,4.2-9.6,4.2C547.1,1048.4,542.4,1044.8,542.4,1038.3z M563.1,1035.9v-1.5c-1.2-0.5-2.8-0.8-4.5-0.8
		c-3.4,0-5.2,1.6-5.2,4v0.1c0,2.2,1.7,3.6,4,3.6C560.8,1041.2,563.1,1039.2,563.1,1035.9z"/>
	<path class="st7" d="M596.8,1031.5v-0.1c0-9.5,6.8-17,16.4-17c11.2,0,16.4,8.3,16.4,17.8c0,0.7,0,1.6-0.1,2.3h-21.8
		c0.9,3.6,3.4,5.4,7,5.4c2.8,0,4.9-1,7.2-3.3l6.3,5.2c-3.1,4-7.6,6.6-14.1,6.6C604.1,1048.5,596.8,1041.6,596.8,1031.5z M619,1028.7
		c-0.4-3.6-2.6-5.9-5.7-5.9c-3.1,0-5,2.3-5.7,5.9H619z"/>
	<path class="st7" d="M634.6,1015.1h11.4v4.6c2.1-2.7,5.1-5.3,9.8-5.3c7,0,11.1,4.5,11.1,12v21.3h-11.4V1030c0-3.6-1.8-5.5-4.6-5.5
		c-2.8,0-4.8,1.9-4.8,5.5v17.7h-11.4V1015.1z"/>
	<path class="st7" d="M691.5,1005.5h19.9c6.5,0,10.9,1.7,13.7,4.5c2.5,2.5,3.7,5.8,3.7,9.8v0.1c0,6.5-3.4,10.8-8.7,13l10.1,14.7
		h-13.4l-8.5-12.8h-5.2v12.8h-11.7V1005.5z M711,1025.8c3.9,0,6.3-1.9,6.3-5v-0.1c0-3.4-2.5-5.1-6.3-5.1h-7.7v10.2H711z"/>
	<path class="st7" d="M732.3,1031.5v-0.1c0-9.5,6.8-17,16.4-17c11.2,0,16.4,8.3,16.4,17.8c0,0.7,0,1.6-0.1,2.3h-21.8
		c0.9,3.6,3.4,5.4,7,5.4c2.8,0,4.9-1,7.2-3.3l6.3,5.2c-3.1,4-7.6,6.6-14.1,6.6C739.5,1048.5,732.3,1041.6,732.3,1031.5z
		 M754.5,1028.7c-0.4-3.6-2.6-5.9-5.7-5.9c-3.1,0-5,2.3-5.7,5.9H754.5z"/>
	<path class="st7" d="M768.9,1031.5v-0.1c0-10.6,6.7-17,14.4-17c4.9,0,7.8,2.2,9.9,4.7v-15.4h11.4v44h-11.4v-4.3
		c-2.2,2.7-5,5.1-9.9,5.1C775.6,1048.4,768.9,1042,768.9,1031.5z M793.5,1031.4v-0.1c0-4.3-3-7.4-6.7-7.4c-3.6,0-6.7,3.1-6.7,7.4
		v0.1c0,4.3,3.1,7.4,6.7,7.4C790.5,1038.8,793.5,1035.8,793.5,1031.4z"/>
	<path class="st7" d="M809.5,1031.5v-0.1c0-9.5,6.8-17,16.4-17c11.2,0,16.4,8.3,16.4,17.8c0,0.7,0,1.6-0.1,2.3h-21.8
		c0.9,3.6,3.4,5.4,7,5.4c2.8,0,4.9-1,7.2-3.3l6.3,5.2c-3.1,4-7.6,6.6-14.1,6.6C816.8,1048.5,809.5,1041.6,809.5,1031.5z
		 M831.7,1028.7c-0.4-3.6-2.6-5.9-5.7-5.9c-3.1,0-5,2.3-5.7,5.9H831.7z"/>
	<path class="st7" d="M844.9,1043.5l4.3-6.9c3.8,2.5,7.8,3.7,11.1,3.7c2,0,3-0.6,3-1.7v-0.1c0-1.4-1.9-1.9-5.3-2.8
		c-6.4-1.6-11.6-3.9-11.6-10.4v-0.1c0-6.9,5.6-10.8,13.1-10.8c4.8,0,9.6,1.4,13.4,3.8l-3.9,7.2c-3.4-1.9-7-3.1-9.6-3.1
		c-1.7,0-2.7,0.7-2.7,1.6v0.1c0,1.3,1.9,1.9,5.3,2.9c6.4,1.7,11.6,4,11.6,10.4v0.1c0,7.2-5.4,10.9-13.3,10.9
		C854.7,1048.4,849.4,1046.8,844.9,1043.5z"/>
	<path class="st7" d="M918.6,1015.1h11.7l-11.9,31.8c-2.9,7.7-5.8,10.6-12.4,10.6c-4.1,0-7.3-1.1-10.4-2.8l3.5-8
		c1.9,1.1,3.7,1.7,5,1.7c1.1,0,1.9-0.3,2.7-1.3l-12.8-32h11.9l6.5,19.6L918.6,1015.1z"/>
	<path class="st7" d="M304.5,1088h-12.6v-10.2h36.9v10.2h-12.7v31.9h-11.7V1088z"/>
	<path class="st7" d="M326.4,1103.8v-0.1c0-9.5,6.8-17,16.4-17c11.2,0,16.4,8.3,16.4,17.8c0,0.7,0,1.6-0.1,2.3h-21.8
		c0.9,3.6,3.4,5.4,7,5.4c2.8,0,4.9-1,7.2-3.3l6.3,5.2c-3.1,4-7.6,6.6-14.1,6.6C333.6,1120.8,326.4,1113.9,326.4,1103.8z M348.6,1101
		c-0.4-3.6-2.6-5.9-5.7-5.9c-3.1,0-5,2.3-5.7,5.9H348.6z"/>
	<path class="st7" d="M364.5,1076h11.4v44h-11.4V1076z"/>
	<path class="st7" d="M381,1103.8v-0.1c0-9.5,6.8-17,16.4-17c11.2,0,16.4,8.3,16.4,17.8c0,0.7,0,1.6-0.1,2.3H392
		c0.9,3.6,3.4,5.4,7,5.4c2.8,0,4.9-1,7.2-3.3l6.3,5.2c-3.1,4-7.6,6.6-14.1,6.6C388.3,1120.8,381,1113.9,381,1103.8z M403.2,1101
		c-0.4-3.6-2.6-5.9-5.7-5.9c-3.1,0-5,2.3-5.7,5.9H403.2z"/>
	<path class="st7" d="M417.5,1103.8v-0.1c0-9.2,7.1-17,17.4-17c6.7,0,11.1,2.9,13.9,7.2l-7.7,5.8c-1.6-2.1-3.4-3.4-6.1-3.4
		c-3.7,0-6.4,3.3-6.4,7.3v0.1c0,4.2,2.7,7.4,6.5,7.4c2.8,0,4.5-1.3,6.3-3.4l7.7,5.5c-3.1,4.5-7.3,7.5-14.5,7.5
		C424.7,1120.8,417.5,1113,417.5,1103.8z"/>
	<path class="st7" d="M450.9,1103.8v-0.1c0-9.3,7.6-17,18-17c10.4,0,18,7.7,18,16.9v0.1c0,9.3-7.7,17-18.1,17
		C458.4,1120.8,450.9,1113.2,450.9,1103.8z M475.8,1103.8v-0.1c0-4-2.9-7.4-7-7.4c-4.2,0-6.8,3.3-6.8,7.3v0.1c0,4,2.9,7.3,6.9,7.3
		C473.1,1111.1,475.8,1107.7,475.8,1103.8z"/>
	<path class="st7" d="M491.7,1087.4h11.4v4.5c2.1-2.7,5.1-5.2,9.7-5.2c4.3,0,7.7,1.9,9.4,5.3c2.8-3.3,6.1-5.3,10.9-5.3
		c7,0,11.1,4.3,11.1,11.9v21.4h-11.4v-17.7c0-3.6-1.7-5.5-4.5-5.5c-2.7,0-4.7,1.9-4.7,5.5v17.7h-11.4v-17.7c0-3.6-1.8-5.5-4.5-5.5
		s-4.6,1.9-4.6,5.5v17.7h-11.4V1087.4z"/>
	<path class="st7" d="M549.9,1108.6v-21.3h11.4v17.7c0,3.6,1.8,5.5,4.6,5.5c2.8,0,4.8-1.9,4.8-5.5v-17.7h11.4v32.6h-11.4v-4.5
		c-2,2.7-5.1,5.2-9.8,5.2C554.1,1120.7,549.9,1116.1,549.9,1108.6z"/>
	<path class="st7" d="M588.4,1087.4h11.4v4.6c2.1-2.7,5.1-5.3,9.8-5.3c7,0,11.1,4.5,11.1,12v21.3h-11.4v-17.7c0-3.6-1.8-5.5-4.6-5.5
		c-2.8,0-4.8,1.9-4.8,5.5v17.7h-11.4V1087.4z"/>
	<path class="st7" d="M626.6,1076h11.9v8.4h-11.9V1076z M626.9,1087.4h11.4v32.6h-11.4V1087.4z"/>
	<path class="st7" d="M643.4,1103.8v-0.1c0-9.2,7.1-17,17.4-17c6.7,0,11.1,2.9,13.9,7.2l-7.7,5.8c-1.6-2.1-3.4-3.4-6.1-3.4
		c-3.7,0-6.4,3.3-6.4,7.3v0.1c0,4.2,2.7,7.4,6.5,7.4c2.8,0,4.5-1.3,6.3-3.4l7.7,5.5c-3.1,4.5-7.3,7.5-14.5,7.5
		C650.6,1120.8,643.4,1113,643.4,1103.8z"/>
	<path class="st7" d="M677.4,1110.6v-0.1c0-6.8,5.1-10.2,12.8-10.2c3.1,0,6,0.5,7.8,1.3v-0.5c0-3.4-2.1-5.4-6.5-5.4
		c-3.4,0-6.1,0.7-9,1.8l-2.3-8c3.7-1.5,7.6-2.5,13.2-2.5c5.8,0,9.8,1.4,12.4,4c2.5,2.4,3.5,5.8,3.5,10.4v18.7h-11.3v-3.4
		c-2.3,2.5-5.3,4.2-9.6,4.2C682.1,1120.7,677.4,1117.1,677.4,1110.6z M698.1,1108.2v-1.5c-1.2-0.5-2.8-0.8-4.5-0.8
		c-3.4,0-5.2,1.6-5.2,4v0.1c0,2.2,1.7,3.6,4,3.6C695.8,1113.5,698.1,1111.5,698.1,1108.2z"/>
	<path class="st7" d="M713.8,1103.8v-0.1c0-9.2,7.1-17,17.4-17c6.7,0,11.1,2.9,13.9,7.2l-7.7,5.8c-1.6-2.1-3.4-3.4-6.1-3.4
		c-3.7,0-6.4,3.3-6.4,7.3v0.1c0,4.2,2.7,7.4,6.5,7.4c2.8,0,4.5-1.3,6.3-3.4l7.7,5.5c-3.1,4.5-7.3,7.5-14.5,7.5
		C721,1120.8,713.8,1113,713.8,1103.8z"/>
	<path class="st7" d="M749.4,1076h11.9v8.4h-11.9V1076z M749.6,1087.4H761v32.6h-11.4V1087.4z"/>
	<path class="st7" d="M766.2,1103.8v-0.1c0-9.3,7.6-17,18-17s18,7.7,18,16.9v0.1c0,9.3-7.7,17-18.1,17
		C773.7,1120.8,766.2,1113.2,766.2,1103.8z M791.1,1103.8v-0.1c0-4-2.9-7.4-7-7.4c-4.2,0-6.8,3.3-6.8,7.3v0.1c0,4,2.9,7.3,6.9,7.3
		C788.4,1111.1,791.1,1107.7,791.1,1103.8z"/>
	<path class="st7" d="M807,1087.4h11.4v4.6c2.1-2.7,5.1-5.3,9.8-5.3c7,0,11.1,4.5,11.1,12v21.3h-11.4v-17.7c0-3.6-1.8-5.5-4.6-5.5
		c-2.8,0-4.8,1.9-4.8,5.5v17.7H807V1087.4z"/>
	<path class="st7" d="M843.9,1103.8v-0.1c0-9.5,6.8-17,16.4-17c11.2,0,16.4,8.3,16.4,17.8c0,0.7,0,1.6-0.1,2.3h-21.8
		c0.9,3.6,3.4,5.4,7,5.4c2.8,0,4.9-1,7.2-3.3l6.3,5.2c-3.1,4-7.6,6.6-14.1,6.6C851.1,1120.8,843.9,1113.9,843.9,1103.8z M866.1,1101
		c-0.4-3.6-2.6-5.9-5.7-5.9c-3.1,0-5,2.3-5.7,5.9H866.1z"/>
	<path class="st7" d="M879.3,1115.8l4.3-6.9c3.8,2.5,7.8,3.7,11.1,3.7c2,0,3-0.6,3-1.7v-0.1c0-1.4-1.9-1.9-5.3-2.8
		c-6.4-1.6-11.6-3.9-11.6-10.4v-0.1c0-6.9,5.6-10.8,13.1-10.8c4.8,0,9.6,1.4,13.4,3.8l-3.9,7.2c-3.4-1.9-7-3.1-9.6-3.1
		c-1.7,0-2.7,0.7-2.7,1.6v0.1c0,1.3,1.9,1.9,5.3,2.9c6.4,1.7,11.6,4,11.6,10.4v0.1c0,7.2-5.4,10.9-13.3,10.9
		C889.1,1120.7,883.8,1119.1,879.3,1115.8z"/>
</g>
</svg>
