<?xml version="1.0" encoding="utf-8"?>
<!-- Generator: Adobe Illustrator 27.9.0, SVG Export Plug-In . SVG Version: 6.00 Build 0)  -->
<svg version="1.1" id="Capa_1" xmlns="http://www.w3.org/2000/svg" xmlns:xlink="http://www.w3.org/1999/xlink" x="0px" y="0px"
	 viewBox="0 0 1200 1200" style="enable-background:new 0 0 1200 1200;" xml:space="preserve">
<style type="text/css">
	.st0{fill:#CE172E;}
	.st1{fill:#BFBEBE;}
	.st2{fill:#6D0A16;}
	.st3{fill:#37A6DE;}
	.st4{fill:#FFFFFF;}
	.st5{fill:#070707;}
	.st6{fill:#662482;}
	.st7{fill:#89DB3B;}
	.st8{fill:#0B0B5E;}
</style>
<g>
	<g>
		<path class="st3" d="M419.5,799H464v160.3h-44.4V799z"/>
		<path class="st3" d="M481.1,935.5l24.7-29.5c16.3,12.8,33.7,19.2,52,19.2c12.1,0,18.5-3.9,18.5-11v-0.5c0-6.9-5.3-10.1-27.3-15.6
			c-33.9-7.8-60.5-17.2-60.5-50.2v-0.5c0-30,23.6-51.3,62.1-51.3c27.5,0,48.5,7.3,66,21.3L594.5,849c-14.7-10.8-30.5-15.8-44.9-15.8
			c-10.8,0-16,4.1-16,10.3v0.5c0,7.1,5.5,10.8,27.9,15.6c36.6,8,59.5,19.9,59.5,49.9v0.5c0,32.7-25.9,52.2-64.8,52.2
			C527.6,962.1,501.3,953.2,481.1,935.5z"/>
		<path class="st3" d="M637.3,879.6v-0.5c0-46.7,35.7-83.4,84.3-83.4c32.5,0,54,13.7,68,33.2l-33.4,25.9
			c-9.2-11.2-19.5-18.8-35-18.8c-22.4,0-38.2,19.2-38.2,42.6v0.5c0,24,15.8,42.8,38.2,42.8c16.7,0,26.3-7.8,36.2-19.5l33.4,23.8
			c-15.3,20.8-35.5,36.2-70.8,36.2C674.2,962.5,637.3,927.5,637.3,879.6z"/>
	</g>
	<g>
		<g>
			<path class="st3" d="M866.8,345.9c-14.6-34.5-35.5-65.5-62.1-92c-26.6-26.6-57.6-47.5-92-62.1C677,176.7,639.1,169,600,169
				c-39.1,0-77,7.7-112.7,22.8c-34.5,14.6-65.5,35.5-92,62.1c-26.6,26.6-47.5,57.5-62.1,92c-15.1,35.7-22.8,73.7-22.8,112.7
				c0,39.1,7.7,77,22.8,112.7c14.6,34.5,35.5,65.5,62.1,92c26.6,26.6,57.5,47.5,92,62c35.7,15.1,73.6,22.8,112.7,22.8
				c39.1,0,77-7.7,112.7-22.8c34.5-14.6,65.5-35.5,92-62c26.6-26.6,47.5-57.6,62.1-92c15.1-35.7,22.8-73.6,22.8-112.7
				C889.6,419.5,881.9,381.6,866.8,345.9z M773.7,632.2c-46.4,46.4-108.1,71.9-173.7,71.9c-65.6,0-127.3-25.5-173.7-71.9
				c-46.4-46.4-71.9-108.1-71.9-173.7s25.6-127.3,71.9-173.7C472.7,238.5,534.4,213,600,213c65.6,0,127.3,25.5,173.7,71.9
				c46.4,46.4,71.9,108.1,71.9,173.7S820,585.9,773.7,632.2z"/>
		</g>
		<g>
			<path class="st3" d="M647.4,543.8c-19.6-19.5-48.3-24.5-72.5-14.8c-8.2,3.3-15.8,8.2-22.5,14.8c-1.3,1.3-2.6,2.7-3.8,4.1
				l41.3,29.8c2.9-2.2,6.4-3.2,9.9-3.2c3.5,0,7,1.1,9.9,3.2l41.3-29.8C650,546.5,648.8,545.2,647.4,543.8z M662.3,566.4
				c-1.4-3.5-3.1-6.8-5-10.1L616,586.2c0.5,1.6,0.8,3.3,0.8,5.1c0,4.5-1.8,8.7-4.9,11.9c-3.2,3.2-7.4,4.9-11.9,4.9
				c-4.4,0-8.5-1.7-11.6-4.7c-0.1-0.1-0.2-0.2-0.2-0.2c-4.6-4.6-5.9-11.2-4.1-17l-41.3-29.8c-2,3.2-3.7,6.6-5,10.1
				c-0.3,0.7-0.6,1.4-0.8,2.1c-8.5,23.7-3.3,51.3,15.7,70.2c12.7,12.7,29.5,19.6,47.5,19.6c17.9,0,34.8-7,47.5-19.6
				c12.7-12.7,19.7-29.5,19.7-47.5C667.1,582.6,665.5,574.2,662.3,566.4z"/>
		</g>
		<g>
			<g>
				<path class="st3" d="M448.1,475.3c2.7-5.1,4.1-10.8,4.1-16.7c0-4.7-0.9-9.2-2.6-13.4c-1.8-4.5-4.5-8.6-8-12.2
					c-10.5-10.5-26-13.2-39-8c-4.4,1.8-8.5,4.4-12.1,8c-3.6,3.6-6.2,7.7-8,12.2c-0.2,0.4-0.3,0.8-0.4,1.1
					c-4.6,12.8-1.8,27.6,8.4,37.8c6.8,6.8,15.9,10.6,25.5,10.6c9.7,0,18.7-3.8,25.6-10.6c0.1-0.1,0.3-0.3,0.4-0.4l-23-16.6
					c-1,0.3-1.9,0.5-3,0.5c-2.3,0-4.6-0.9-6.3-2.5c-0.1,0-0.1-0.1-0.1-0.1c-3.5-3.5-3.5-9.2,0-12.8c1.8-1.8,4.1-2.6,6.4-2.6
					c2.3,0,4.5,0.8,6.3,2.5c0,0,0.1,0.1,0.1,0.1c1.7,1.7,2.6,4,2.6,6.4v0.1L448.1,475.3z"/>
			</g>
			<g>
				<path class="st3" d="M817.5,445.2c-1.8-4.5-4.5-8.6-8-12.2c-10.5-10.5-26-13.2-39-8c-4.4,1.8-8.5,4.4-12.1,8
					c-3.6,3.6-6.2,7.7-8,12.2c-0.1,0.4-0.3,0.8-0.4,1.1c-3.4,9.4-2.7,20,1.9,29l23-16.6c0-2.4,0.9-4.7,2.6-6.5
					c1.8-1.8,4.1-2.6,6.4-2.6c2.3,0,4.5,0.8,6.3,2.5c0,0,0.1,0.1,0.1,0.1c1.7,1.7,2.6,4,2.6,6.4c0,2.4-0.9,4.7-2.6,6.4
					c-1.7,1.7-4,2.7-6.4,2.7c-1,0-2-0.2-2.9-0.5l-23,16.6c0.1,0.1,0.3,0.3,0.4,0.4c6.8,6.8,15.9,10.6,25.6,10.6
					c9.7,0,18.7-3.8,25.6-10.6c6.8-6.8,10.6-15.9,10.6-25.6C820,453.9,819.2,449.4,817.5,445.2z"/>
			</g>
		</g>
		<path class="st3" d="M659.5,325.6v97.4c0,6-4.9,10.8-10.8,10.8h-97.3c-6,0-10.8-4.9-10.8-10.8v-97.4c0-6,4.9-10.8,10.8-10.8h97.3
			C654.6,314.7,659.5,319.6,659.5,325.6z"/>
		<path class="st4" d="M659.5,325.6v97.4c0,6-4.9,10.8-10.8,10.8h-97.3c-6,0-10.8-4.9-10.8-10.8v-97.4c0-6,4.9-10.8,10.8-10.8h97.3
			C654.6,314.7,659.5,319.6,659.5,325.6z"/>
		<path class="st1" d="M727,363.8h-33.6v-26.6h15.3c5.3,0,9.6-4.3,9.6-9.6v-1.6c0-5.3-4.3-9.6-9.6-9.6h-15.3v-2
			c0-18.5-15.1-33.6-33.6-33.6h-0.2v-14.3c0-5.3-4.3-9.6-9.6-9.6h-1.6c-5.3,0-9.6,4.3-9.6,9.6v14.3h-30.1v-32.6
			c0-5.3-4.3-9.6-9.6-9.6h-1.6c-5.3,0-9.6,4.3-9.6,9.6v32.6h-26.6v-14.3c0-5.3-4.3-9.6-9.6-9.6h-1.6c-5.3,0-9.6,4.3-9.6,9.6v14.3
			h-0.3c-18.5,0-33.6,15.1-33.6,33.6v0.3h-14.3c-5.3,0-9.6,4.3-9.6,9.6v1.6c0,5.3,4.3,9.6,9.6,9.6h14.3v30.1H474
			c-5.3,0-9.6,4.3-9.6,9.6v1.6c0,5.3,4.3,9.6,9.6,9.6h32.6v26.6h-14.3c-5.3,0-9.6,4.3-9.6,9.6v1.6c0,5.3,4.3,9.6,9.6,9.6h14.3v0.3
			c0,18,14.3,32.8,32.1,33.6V482c0,5.3,4.3,9.6,9.6,9.6h1.6c5.3,0,9.6-4.3,9.6-9.6v-14.3h30.1v32.6c0,5.3,4.3,9.6,9.6,9.6h1.6
			c5.3,0,9.6-4.3,9.6-9.6v-32.6H637V482c0,5.3,4.3,9.6,9.6,9.6h1.6c5.3,0,9.6-4.3,9.6-9.6v-14.3h2c18,0,32.8-14.3,33.6-32.1h15.3
			c5.3,0,9.6-4.3,9.6-9.6v-1.6c0-5.3-4.3-9.6-9.6-9.6h-15.3v-30.1H727c5.3,0,9.6-4.3,9.6-9.6v-1.6
			C736.6,368.1,732.2,363.8,727,363.8z M659.5,422.9c0,6-4.9,10.8-10.8,10.8h-97.3c-6,0-10.8-4.9-10.8-10.8v-97.4
			c0-6,4.9-10.8,10.8-10.8h97.3c6,0,10.8,4.9,10.8,10.8V422.9z"/>
	</g>
</g>
<g>
	<path class="st3" d="M257.2,1005.5h11.7v42.2h-11.7V1005.5z"/>
	<path class="st3" d="M275.9,1015.1h11.4v4.6c2.1-2.7,5.1-5.3,9.8-5.3c7,0,11.1,4.5,11.1,12v21.3h-11.4V1030c0-3.6-1.8-5.5-4.6-5.5
		c-2.8,0-4.8,1.9-4.8,5.5v17.7h-11.4V1015.1z"/>
	<path class="st3" d="M313.9,1053.7l3.7-7.6c3.6,1.9,7,3.1,11.4,3.1c5.7,0,8.5-2.8,8.5-8v-1.3c-2.3,2.7-5.2,4.9-10,4.9
		c-8,0-14.5-5.8-14.5-15.1v-0.1c0-9.4,6.6-15.2,14.1-15.2c5,0,7.8,2,10.2,4.6v-3.9h11.4v24.8c0,5.9-1.4,10.2-4.2,13
		c-3,3.1-7.5,4.6-14.3,4.6C323.9,1057.4,318.7,1056.1,313.9,1053.7z M337.5,1029.7v-0.1c0-3.6-2.8-6.3-6.7-6.3
		c-3.9,0-6.7,2.7-6.7,6.4v0.1c0,3.6,2.8,6.3,6.7,6.3S337.5,1033.3,337.5,1029.7z"/>
	<path class="st3" d="M353.6,1031.5v-0.1c0-9.5,6.8-17,16.4-17c11.2,0,16.4,8.3,16.4,17.8c0,0.7,0,1.6-0.1,2.3h-21.8
		c0.9,3.6,3.4,5.4,7,5.4c2.8,0,4.9-1,7.2-3.3l6.3,5.2c-3.1,4-7.6,6.6-14.1,6.6C360.8,1048.5,353.6,1041.6,353.6,1031.5z
		 M375.8,1028.7c-0.4-3.6-2.6-5.9-5.7-5.9c-3.1,0-5,2.3-5.7,5.9H375.8z"/>
	<path class="st3" d="M391.4,1015.1h11.4v4.6c2.1-2.7,5.1-5.3,9.8-5.3c7,0,11.1,4.5,11.1,12v21.3h-11.4V1030c0-3.6-1.8-5.5-4.6-5.5
		s-4.8,1.9-4.8,5.5v17.7h-11.4V1015.1z"/>
	<path class="st3" d="M429.6,1003.7h11.9v8.4h-11.9V1003.7z M429.9,1015.1h11.4v32.6h-11.4V1015.1z"/>
	<path class="st3" d="M446.4,1031.5v-0.1c0-9.5,6.8-17,16.4-17c11.2,0,16.4,8.3,16.4,17.8c0,0.7,0,1.6-0.1,2.3h-21.8
		c0.9,3.6,3.4,5.4,7,5.4c2.8,0,4.9-1,7.2-3.3l6.3,5.2c-3.1,4-7.6,6.6-14.1,6.6C453.7,1048.5,446.4,1041.6,446.4,1031.5z
		 M468.6,1028.7c-0.4-3.6-2.6-5.9-5.7-5.9c-3.1,0-5,2.3-5.7,5.9H468.6z"/>
	<path class="st3" d="M484.2,1015.1h11.4v6.6c1.9-4.4,4.8-7.3,10.3-7.1v12h-1c-6,0-9.3,3.4-9.3,10.9v10.2h-11.4V1015.1z"/>
	<path class="st3" d="M510.3,1015.1h11.4v32.6h-11.4V1015.1z M517.9,1001.2l10.6,3.4l-8.9,7.7h-8L517.9,1001.2z"/>
	<path class="st3" d="M526.5,1038.3v-0.1c0-6.8,5.1-10.2,12.8-10.2c3.1,0,6,0.5,7.8,1.3v-0.5c0-3.4-2.1-5.4-6.5-5.4
		c-3.4,0-6.1,0.7-9,1.8l-2.3-8c3.7-1.5,7.6-2.5,13.2-2.5c5.8,0,9.8,1.4,12.4,4c2.5,2.4,3.5,5.8,3.5,10.4v18.7h-11.3v-3.4
		c-2.3,2.5-5.3,4.2-9.6,4.2C531.2,1048.4,526.5,1044.8,526.5,1038.3z M547.3,1035.9v-1.5c-1.2-0.5-2.8-0.8-4.5-0.8
		c-3.4,0-5.2,1.6-5.2,4v0.1c0,2.2,1.7,3.6,4,3.6C544.9,1041.2,547.3,1039.2,547.3,1035.9z"/>
	<path class="st3" d="M581,1031.5v-0.1c0-9.5,6.8-17,16.4-17c11.2,0,16.4,8.3,16.4,17.8c0,0.7,0,1.6-0.1,2.3H592
		c0.9,3.6,3.4,5.4,7,5.4c2.8,0,4.9-1,7.2-3.3l6.3,5.2c-3.1,4-7.6,6.6-14.1,6.6C588.2,1048.5,581,1041.6,581,1031.5z M603.2,1028.7
		c-0.4-3.6-2.6-5.9-5.7-5.9c-3.1,0-5,2.3-5.7,5.9H603.2z"/>
	<path class="st3" d="M618.8,1015.1h11.4v4.6c2.1-2.7,5.1-5.3,9.8-5.3c7,0,11.1,4.5,11.1,12v21.3h-11.4V1030c0-3.6-1.8-5.5-4.6-5.5
		c-2.8,0-4.8,1.9-4.8,5.5v17.7h-11.4V1015.1z"/>
	<path class="st3" d="M672.5,1041.4l6.5-7.8c4.3,3.4,8.9,5.1,13.7,5.1c3.2,0,4.9-1,4.9-2.9v-0.1c0-1.8-1.4-2.7-7.2-4.1
		c-8.9-2-15.9-4.5-15.9-13.2v-0.1c0-7.9,6.2-13.5,16.3-13.5c7.2,0,12.8,1.9,17.3,5.6l-5.8,8.3c-3.9-2.8-8-4.2-11.8-4.2
		c-2.8,0-4.2,1.1-4.2,2.7v0.1c0,1.9,1.4,2.8,7.3,4.1c9.6,2.1,15.7,5.2,15.7,13.1v0.1c0,8.6-6.8,13.7-17,13.7
		C684.7,1048.4,677.8,1046.1,672.5,1041.4z"/>
	<path class="st3" d="M714.4,1003.7h11.9v8.4h-11.9V1003.7z M714.6,1015.1H726v32.6h-11.4V1015.1z"/>
	<path class="st3" d="M730,1043.5l4.3-6.9c3.8,2.5,7.8,3.7,11.1,3.7c2,0,3-0.6,3-1.7v-0.1c0-1.4-1.9-1.9-5.3-2.8
		c-6.4-1.6-11.6-3.9-11.6-10.4v-0.1c0-6.9,5.6-10.8,13.1-10.8c4.8,0,9.6,1.4,13.4,3.8l-3.9,7.2c-3.4-1.9-7-3.1-9.6-3.1
		c-1.7,0-2.7,0.7-2.7,1.6v0.1c0,1.3,1.9,1.9,5.3,2.9c6.4,1.7,11.6,4,11.6,10.4v0.1c0,7.2-5.4,10.9-13.3,10.9
		C739.8,1048.4,734.5,1046.8,730,1043.5z"/>
	<path class="st3" d="M764.8,1037.6v-13.3H761v-9.2h3.9v-8.3h11.4v8.3h7.6v9.2h-7.6v11.1c0,2.3,1,3.3,3.1,3.3c1.5,0,3-0.4,4.3-1.1
		v8.9c-2.1,1.1-4.8,1.9-8,1.9C768.8,1048.3,764.8,1045.3,764.8,1037.6z"/>
	<path class="st3" d="M786.6,1031.5v-0.1c0-9.5,6.8-17,16.4-17c11.2,0,16.4,8.3,16.4,17.8c0,0.7,0,1.6-0.1,2.3h-21.8
		c0.9,3.6,3.4,5.4,7,5.4c2.8,0,4.9-1,7.2-3.3l6.3,5.2c-3.1,4-7.6,6.6-14.1,6.6C793.8,1048.5,786.6,1041.6,786.6,1031.5z
		 M808.8,1028.7c-0.4-3.6-2.6-5.9-5.7-5.9c-3.1,0-5,2.3-5.7,5.9H808.8z"/>
	<path class="st3" d="M824.4,1015.1h11.4v4.5c2.1-2.7,5.1-5.2,9.7-5.2c4.3,0,7.7,1.9,9.4,5.3c2.8-3.3,6.1-5.3,10.9-5.3
		c7,0,11.1,4.3,11.1,11.9v21.4h-11.4V1030c0-3.6-1.7-5.5-4.5-5.5c-2.7,0-4.7,1.9-4.7,5.5v17.7H845V1030c0-3.6-1.8-5.5-4.5-5.5
		s-4.6,1.9-4.6,5.5v17.7h-11.4V1015.1z"/>
	<path class="st3" d="M881.3,1038.3v-0.1c0-6.8,5.1-10.2,12.8-10.2c3.1,0,6,0.5,7.8,1.3v-0.5c0-3.4-2.1-5.4-6.5-5.4
		c-3.4,0-6.1,0.7-9,1.8l-2.3-8c3.7-1.5,7.6-2.5,13.2-2.5c5.8,0,9.8,1.4,12.4,4c2.5,2.4,3.5,5.8,3.5,10.4v18.7h-11.3v-3.4
		c-2.3,2.5-5.3,4.2-9.6,4.2C886,1048.4,881.3,1044.8,881.3,1038.3z M902,1035.9v-1.5c-1.2-0.5-2.8-0.8-4.5-0.8c-3.4,0-5.2,1.6-5.2,4
		v0.1c0,2.2,1.7,3.6,4,3.6C899.7,1041.2,902,1039.2,902,1035.9z"/>
	<path class="st3" d="M916.5,1043.5l4.3-6.9c3.8,2.5,7.8,3.7,11.1,3.7c2,0,3-0.6,3-1.7v-0.1c0-1.4-1.9-1.9-5.3-2.8
		c-6.4-1.6-11.6-3.9-11.6-10.4v-0.1c0-6.9,5.6-10.8,13.1-10.8c4.8,0,9.6,1.4,13.4,3.8l-3.9,7.2c-3.4-1.9-7-3.1-9.6-3.1
		c-1.7,0-2.7,0.7-2.7,1.6v0.1c0,1.3,1.9,1.9,5.3,2.9c6.4,1.7,11.6,4,11.6,10.4v0.1c0,7.2-5.4,10.9-13.3,10.9
		C926.3,1048.4,921,1046.8,916.5,1043.5z"/>
	<path class="st3" d="M335.3,1099v-0.1c0-12.3,9.4-21.9,22.2-21.9c8.6,0,14.2,3.6,17.9,8.7l-8.8,6.8c-2.4-3-5.1-4.9-9.2-4.9
		c-5.9,0-10.1,5.1-10.1,11.2v0.1c0,6.3,4.2,11.3,10.1,11.3c4.4,0,6.9-2,9.5-5.1l8.8,6.3c-4,5.5-9.3,9.5-18.6,9.5
		C345,1120.8,335.3,1111.6,335.3,1099z"/>
	<path class="st3" d="M378.1,1103.8v-0.1c0-9.3,7.6-17,18-17s18,7.7,18,16.9v0.1c0,9.3-7.7,17-18.1,17
		C385.7,1120.8,378.1,1113.2,378.1,1103.8z M403,1103.8v-0.1c0-4-2.9-7.4-7-7.4c-4.2,0-6.8,3.3-6.8,7.3v0.1c0,4,2.9,7.3,6.9,7.3
		C400.3,1111.1,403,1107.7,403,1103.8z"/>
	<path class="st3" d="M418.9,1087.4h11.4v4.5c2.1-2.7,5.1-5.2,9.7-5.2c4.3,0,7.7,1.9,9.4,5.3c2.8-3.3,6.1-5.3,10.9-5.3
		c7,0,11.1,4.3,11.1,11.9v21.4h-11.4v-17.7c0-3.6-1.7-5.5-4.5-5.5s-4.7,1.9-4.7,5.5v17.7h-11.4v-17.7c0-3.6-1.8-5.5-4.5-5.5
		s-4.6,1.9-4.6,5.5v17.7h-11.4V1087.4z"/>
	<path class="st3" d="M477.4,1087.4h11.4v4.3c2.2-2.7,5-5.1,9.9-5.1c7.7,0,14.5,6.4,14.5,16.9v0.1c0,10.6-6.7,17-14.4,17
		c-4.9,0-7.8-2.2-9.9-4.7v13.6h-11.4V1087.4z M502,1103.7v-0.1c0-4.3-3.1-7.4-6.7-7.4c-3.7,0-6.7,3.1-6.7,7.4v0.1
		c0,4.3,3,7.4,6.7,7.4C498.9,1111.1,502,1108.1,502,1103.7z"/>
	<path class="st3" d="M517.9,1108.6v-21.3h11.4v17.7c0,3.6,1.8,5.5,4.6,5.5c2.8,0,4.8-1.9,4.8-5.5v-17.7h11.4v32.6h-11.4v-4.5
		c-2,2.7-5.1,5.2-9.8,5.2C522.1,1120.7,517.9,1116.1,517.9,1108.6z"/>
	<path class="st3" d="M558.4,1109.8v-13.3h-3.9v-9.2h3.9v-8.3h11.4v8.3h7.6v9.2h-7.6v11.1c0,2.3,1,3.3,3.1,3.3c1.5,0,3-0.4,4.3-1.1
		v8.9c-2.1,1.1-4.8,1.9-8,1.9C562.4,1120.6,558.4,1117.6,558.4,1109.8z"/>
	<path class="st3" d="M580.7,1110.6v-0.1c0-6.8,5.1-10.2,12.8-10.2c3.1,0,6,0.5,7.8,1.3v-0.5c0-3.4-2.1-5.4-6.5-5.4
		c-3.4,0-6.1,0.7-9,1.8l-2.3-8c3.7-1.5,7.6-2.5,13.2-2.5c5.8,0,9.8,1.4,12.4,4c2.5,2.4,3.5,5.8,3.5,10.4v18.7h-11.3v-3.4
		c-2.3,2.5-5.3,4.2-9.6,4.2C585.4,1120.7,580.7,1117.1,580.7,1110.6z M601.4,1108.2v-1.5c-1.2-0.5-2.8-0.8-4.5-0.8
		c-3.4,0-5.2,1.6-5.2,4v0.1c0,2.2,1.7,3.6,4,3.6C599.1,1113.5,601.4,1111.5,601.4,1108.2z"/>
	<path class="st3" d="M617.1,1103.8v-0.1c0-9.2,7.1-17,17.4-17c6.7,0,11.1,2.9,13.9,7.2l-7.7,5.8c-1.6-2.1-3.4-3.4-6.1-3.4
		c-3.7,0-6.4,3.3-6.4,7.3v0.1c0,4.2,2.7,7.4,6.5,7.4c2.8,0,4.5-1.3,6.3-3.4l7.7,5.5c-3.1,4.5-7.3,7.5-14.5,7.5
		C624.3,1120.8,617.1,1113,617.1,1103.8z"/>
	<path class="st3" d="M652.7,1076h11.9v8.4h-11.9V1076z M653,1087.4h11.4v32.6H653V1087.4z"/>
	<path class="st3" d="M669.5,1103.8v-0.1c0-9.3,7.6-17,18-17s18,7.7,18,16.9v0.1c0,9.3-7.7,17-18.1,17
		C677,1120.8,669.5,1113.2,669.5,1103.8z M694.4,1103.8v-0.1c0-4-2.9-7.4-7-7.4c-4.2,0-6.8,3.3-6.8,7.3v0.1c0,4,2.9,7.3,6.9,7.3
		C691.7,1111.1,694.4,1107.7,694.4,1103.8z"/>
	<path class="st3" d="M710.3,1087.4h11.4v4.6c2.1-2.7,5.1-5.3,9.8-5.3c7,0,11.1,4.5,11.1,12v21.3h-11.4v-17.7c0-3.6-1.8-5.5-4.6-5.5
		s-4.8,1.9-4.8,5.5v17.7h-11.4V1087.4z"/>
	<path class="st3" d="M746.9,1110.6v-0.1c0-6.8,5.1-10.2,12.8-10.2c3.1,0,6,0.5,7.8,1.3v-0.5c0-3.4-2.1-5.4-6.5-5.4
		c-3.4,0-6.1,0.7-9,1.8l-2.3-8c3.7-1.5,7.6-2.5,13.2-2.5c5.8,0,9.8,1.4,12.4,4c2.5,2.4,3.5,5.8,3.5,10.4v18.7h-11.3v-3.4
		c-2.3,2.5-5.3,4.2-9.6,4.2C751.6,1120.7,746.9,1117.1,746.9,1110.6z M767.6,1108.2v-1.5c-1.2-0.5-2.8-0.8-4.5-0.8
		c-3.4,0-5.2,1.6-5.2,4v0.1c0,2.2,1.7,3.6,4,3.6C765.3,1113.5,767.6,1111.5,767.6,1108.2z"/>
	<path class="st3" d="M784.9,1076h11.4v44h-11.4V1076z"/>
	<path class="st3" d="M801.4,1103.8v-0.1c0-9.5,6.8-17,16.4-17c11.2,0,16.4,8.3,16.4,17.8c0,0.7,0,1.6-0.1,2.3h-21.8
		c0.9,3.6,3.4,5.4,7,5.4c2.8,0,4.9-1,7.2-3.3l6.3,5.2c-3.1,4-7.6,6.6-14.1,6.6C808.7,1120.8,801.4,1113.9,801.4,1103.8z M823.6,1101
		c-0.4-3.6-2.6-5.9-5.7-5.9c-3.1,0-5,2.3-5.7,5.9H823.6z"/>
	<path class="st3" d="M836.8,1115.8l4.3-6.9c3.8,2.5,7.8,3.7,11.1,3.7c2,0,3-0.6,3-1.7v-0.1c0-1.4-1.9-1.9-5.3-2.8
		c-6.4-1.6-11.6-3.9-11.6-10.4v-0.1c0-6.9,5.6-10.8,13.1-10.8c4.8,0,9.6,1.4,13.4,3.8l-3.9,7.2c-3.4-1.9-7-3.1-9.6-3.1
		c-1.7,0-2.7,0.7-2.7,1.6v0.1c0,1.3,1.9,1.9,5.3,2.9c6.4,1.7,11.6,4,11.6,10.4v0.1c0,7.2-5.4,10.9-13.3,10.9
		C846.6,1120.7,841.3,1119.1,836.8,1115.8z"/>
</g>
</svg>
