<?xml version="1.0" encoding="utf-8"?>
<!-- Generator: Adobe Illustrator 27.9.0, SVG Export Plug-In . SVG Version: 6.00 Build 0)  -->
<svg version="1.1" id="Capa_1" xmlns="http://www.w3.org/2000/svg" xmlns:xlink="http://www.w3.org/1999/xlink" x="0px" y="0px"
	 viewBox="0 0 1200 1200" style="enable-background:new 0 0 1200 1200;" xml:space="preserve">
<style type="text/css">
	.st0{fill:#CE172E;}
	.st1{fill:#BFBEBE;}
	.st2{fill:#6D0A16;}
	.st3{fill:#37A6DE;}
	.st4{fill:#FFFFFF;}
	.st5{fill:#070707;}
	.st6{fill:#662482;}
	.st7{fill:#89DB3B;}
	.st8{fill:#0B0B5E;}
</style>
<g>
	<g>
		<path class="st6" d="M421.6,799H466v160.3h-44.4V799z"/>
		<path class="st6" d="M534.5,838h-47.9V799H627V838h-48.1v121.4h-44.4V838z"/>
		<path class="st6" d="M681.3,797.9h42.8l68.2,161.4h-47.6l-11.5-28.9h-62.1l-11.4,28.9h-46.5L681.3,797.9z M720.2,895.9l-17.9-45.3
			l-18.1,45.3H720.2z"/>
	</g>
	<g>
		<path class="st1" d="M618.1,419.6v14h-56.7c-0.6-29.9-25-53.9-55.1-53.9s-54.5,24-55.1,53.9H323.5c0.8-5.9,1.7-11.8,2.9-17.6
			c0.8-4.1,1.7-8.2,2.6-12.3c4.1-17.3,9.6-34.3,16.6-50.8c8.9-21,19.9-40.8,32.9-59.2c3.2-4.6,6.6-9.1,10.1-13.6h89.8
			C555.2,280,618.1,342.8,618.1,419.6z"/>
		<g>
			<path class="st6" d="M888,428.3L888,428.3c-2.9-28.4-10-56-21.2-82.4c-11.2-26.4-26.1-50.8-44.4-72.7c0-0.1-0.1-0.1-0.1-0.2
				c-5.5-6.6-11.4-13-17.5-19.2c-7-7-14.4-13.7-22-19.9c-0.1,0-0.1-0.1-0.2-0.1c-21.2-17.2-44.6-31.3-69.8-42
				c-27.1-11.5-55.6-18.7-84.8-21.4c0,0,0,0,0,0c-9.2-0.9-18.5-1.3-27.9-1.3c-9.4,0-18.7,0.4-27.9,1.3h0
				c-29.2,2.8-57.7,10-84.8,21.4c-34.5,14.6-65.5,35.5-92,62.1c-8.1,8.1-15.7,16.7-22.7,25.6c-3.2,4.1-6.3,8.2-9.3,12.4
				c-11.9,16.8-21.9,34.9-30.1,54.1c-6.4,15.1-11.4,30.6-15.2,46.4c-0.9,3.7-1.7,7.5-2.4,11.3c-1,5.3-1.9,10.7-2.6,16.1
				c-0.4,2.9-0.7,5.7-1,8.6c-1,10-1.6,20.1-1.6,30.3c0,8.6,0.4,17,1.1,25.5c2.3,26.7,8.3,52.7,17.8,77.6c1.1,2.9,2.3,5.8,3.5,8.6
				c0.1,0.3,0.3,0.6,0.4,1c9.3,22,21.2,42.6,35.5,61.5c2.2,2.9,4.4,5.7,6.7,8.5c6.2,7.6,12.9,15,19.9,22
				c6.2,6.2,12.7,12.1,19.3,17.7c21.9,18.3,46.3,33.2,72.7,44.4c27.1,11.5,55.6,18.7,84.8,21.4c9.2,0.9,18.5,1.3,27.9,1.3
				c9.4,0,18.7-0.4,27.9-1.3c29.2-2.8,57.7-10,84.8-21.4c34.5-14.6,65.5-35.5,92-62.1c26.6-26.6,47.5-57.6,62.1-92
				c11.8-27.9,19.1-57.1,21.7-87.2c0.7-8.4,1.1-16.9,1.1-25.5C889.6,448.4,889.1,438.3,888,428.3z M773.7,632.3
				c-39.8,39.7-90.7,64.2-145.8,70.4c-9.2,1-18.5,1.6-27.9,1.6c-9.4,0-18.7-0.5-27.9-1.6c-46.4-5.2-89.9-23.4-126.3-52.8
				c-6.5-5.3-12.8-10.9-18.9-16.9c-0.2-0.2-0.4-0.4-0.6-0.6c-7.1-7.1-13.6-14.5-19.7-22.2c-9.8-12.5-18.3-25.8-25.5-39.7
				c-1.5-2.9-2.9-5.7-4.2-8.6c-11.3-24.3-18.5-50.5-21.3-77.6c-0.9-8.4-1.3-16.9-1.3-25.5c0-10.2,0.6-20.3,1.8-30.3
				c0.1-0.9,0.2-1.8,0.4-2.8c0.3-2,0.5-3.9,0.9-5.9c0.9-5.4,1.9-10.8,3.1-16.1c0.9-3.8,1.8-7.5,2.9-11.3
				c9.7-34.8,27.1-67.1,51.2-94.8c1.7-1.9,3.4-3.8,5.1-5.7c2.2-2.3,4.3-4.6,6.6-6.8c1.9-1.9,3.8-3.7,5.7-5.5
				c38.9-36.5,87.6-58.9,140-64.8h0c9.2-1,18.5-1.6,27.9-1.6c9.4,0,18.7,0.5,27.9,1.6c0,0,0,0,0,0c45.2,5.1,87.6,22.5,123.4,50.5
				c0.1,0,0.1,0.1,0.2,0.1c7.7,6.1,15.1,12.6,22.2,19.7c1.6,1.6,3.2,3.3,4.8,5c0.7,0.7,1.3,1.4,1.9,2.1c0.1,0.1,0.1,0.1,0.2,0.2
				c0.7,0.8,1.4,1.5,2.1,2.3c0.5,0.6,1,1.2,1.6,1.8c0.4,0.4,0.7,0.8,1.1,1.2c1.2,1.4,2.5,2.9,3.7,4.3c0.2,0.3,0.4,0.5,0.6,0.8
				c0.5,0.6,1,1.2,1.4,1.7c0.1,0.1,0.1,0.1,0.1,0.2c28.9,35.7,47,78.3,52.6,123.8v0c1.2,10,1.8,20.1,1.8,30.3
				c0,8.6-0.4,17.1-1.3,25.5C838.6,540,814,591.9,773.7,632.3z"/>
		</g>
		<g>
			<path class="st6" d="M667.2,564.5c-3.6-9-9-17.3-16.1-24.3c-21.1-21.1-52-26.4-78-16c-8.8,3.5-17.1,8.8-24.2,16
				c-7.2,7.2-12.5,15.5-16,24.3c-0.3,0.8-0.6,1.5-0.9,2.3c-9.2,25.5-3.5,55.2,16.9,75.6c13.7,13.6,31.8,21.2,51.1,21.2
				c19.3,0,37.5-7.5,51.1-21.2c13.7-13.7,21.2-31.8,21.2-51.1C672.3,582,670.5,572.9,667.2,564.5z M612.8,604.1
				c-3.4,3.4-8,5.3-12.8,5.3c-4.7,0-9.1-1.8-12.5-5.1c-0.1-0.1-0.2-0.2-0.2-0.2c-7-7-7-18.5,0-25.5c3.5-3.5,8.1-5.3,12.8-5.3
				c4.5,0,9.1,1.7,12.6,5.1c0.1,0.1,0.1,0.1,0.2,0.2c3.4,3.4,5.3,8,5.3,12.8C618.1,596.1,616.2,600.6,612.8,604.1z"/>
			<path class="st4" d="M618.1,591.3c0,4.8-1.9,9.4-5.3,12.8c-3.4,3.4-8,5.3-12.8,5.3c-4.7,0-9.1-1.8-12.5-5.1
				c-0.1-0.1-0.2-0.2-0.2-0.2c-7-7-7-18.5,0-25.5c3.5-3.5,8.1-5.3,12.8-5.3c4.5,0,9.1,1.7,12.6,5.1c0.1,0.1,0.1,0.1,0.2,0.2
				C616.2,581.9,618.1,586.5,618.1,591.3z"/>
		</g>
		<path class="st6" d="M491.7,597.3c0,9.8-4,18.7-10.4,25.1c-6.4,6.4-15.3,10.4-25.1,10.4h-87.4c-14.3-18.9-26.2-39.5-35.5-61.5
			c-0.1-0.3-0.3-0.6-0.4-1c-1.2-2.9-2.4-5.7-3.5-8.6h126.8C475.7,561.7,491.7,577.7,491.7,597.3z"/>
		<path class="st6" d="M627.9,170.3v75.1c0,0.3,0,0.6,0,0.9c0,1.1-0.1,2.2-0.3,3.2c-2,13.4-13.7,23.8-27.6,23.8
			s-25.6-10.4-27.6-23.8c-0.2-1.3-0.3-2.7-0.3-4.1v-75.1c9.2-0.9,18.5-1.3,27.9-1.3C609.4,169,618.7,169.4,627.9,170.3
			C627.9,170.3,627.9,170.3,627.9,170.3z"/>
		<path class="st6" d="M889.6,458.6c0,8.6-0.4,17-1.1,25.5h-81.3c-15.4,0-27.9-12.6-27.9-27.9s12.6-27.9,27.9-27.9H888v0
			C889.1,438.3,889.6,448.4,889.6,458.6z"/>
		<path class="st6" d="M822.3,273l-56,56l-2.4,2.4c-10.9,10.8-28.6,10.8-39.5,0c-10.8-10.9-10.8-28.6,0-39.5l26.9-26.9l31.3-31.3
			c0.1,0,0.1,0.1,0.2,0.1c7.6,6.2,15,12.8,22,19.9C810.9,260,816.8,266.4,822.3,273z"/>
	</g>
</g>
<g>
	<path class="st6" d="M227,1005.5h11.7v42.2H227V1005.5z"/>
	<path class="st6" d="M245.8,1015.1h11.4v4.6c2.1-2.7,5.1-5.3,9.8-5.3c7,0,11.1,4.5,11.1,12v21.3h-11.4V1030c0-3.6-1.8-5.5-4.6-5.5
		c-2.8,0-4.8,1.9-4.8,5.5v17.7h-11.4V1015.1z"/>
	<path class="st6" d="M283.7,1053.7l3.7-7.6c3.6,1.9,7,3.1,11.4,3.1c5.7,0,8.5-2.8,8.5-8v-1.3c-2.3,2.7-5.2,4.9-10,4.9
		c-8,0-14.5-5.8-14.5-15.1v-0.1c0-9.4,6.6-15.2,14.1-15.2c5,0,7.8,2,10.2,4.6v-3.9h11.4v24.8c0,5.9-1.4,10.2-4.2,13
		c-3,3.1-7.5,4.6-14.3,4.6C293.7,1057.4,288.5,1056.1,283.7,1053.7z M307.3,1029.7v-0.1c0-3.6-2.8-6.3-6.7-6.3
		c-3.9,0-6.7,2.7-6.7,6.4v0.1c0,3.6,2.8,6.3,6.7,6.3S307.3,1033.3,307.3,1029.7z"/>
	<path class="st6" d="M323.4,1031.5v-0.1c0-9.5,6.8-17,16.4-17c11.2,0,16.4,8.3,16.4,17.8c0,0.7,0,1.6-0.1,2.3h-21.8
		c0.9,3.6,3.4,5.4,7,5.4c2.8,0,4.9-1,7.2-3.3l6.3,5.2c-3.1,4-7.6,6.6-14.1,6.6C330.6,1048.5,323.4,1041.6,323.4,1031.5z
		 M345.6,1028.7c-0.4-3.6-2.6-5.9-5.7-5.9c-3.1,0-5,2.3-5.7,5.9H345.6z"/>
	<path class="st6" d="M361.2,1015.1h11.4v4.6c2.1-2.7,5.1-5.3,9.8-5.3c7,0,11.1,4.5,11.1,12v21.3h-11.4V1030c0-3.6-1.8-5.5-4.6-5.5
		c-2.8,0-4.8,1.9-4.8,5.5v17.7h-11.4V1015.1z"/>
	<path class="st6" d="M399.4,1003.7h11.9v8.4h-11.9V1003.7z M399.7,1015.1h11.4v32.6h-11.4V1015.1z"/>
	<path class="st6" d="M416.2,1031.5v-0.1c0-9.5,6.8-17,16.4-17c11.2,0,16.4,8.3,16.4,17.8c0,0.7,0,1.6-0.1,2.3h-21.8
		c0.9,3.6,3.4,5.4,7,5.4c2.8,0,4.9-1,7.2-3.3l6.3,5.2c-3.1,4-7.6,6.6-14.1,6.6C423.5,1048.5,416.2,1041.6,416.2,1031.5z
		 M438.4,1028.7c-0.4-3.6-2.6-5.9-5.7-5.9c-3.1,0-5,2.3-5.7,5.9H438.4z"/>
	<path class="st6" d="M454,1015.1h11.4v6.6c1.9-4.4,4.8-7.3,10.3-7.1v12h-1c-6,0-9.3,3.4-9.3,10.9v10.2H454V1015.1z"/>
	<path class="st6" d="M480.1,1015.1h11.4v32.6h-11.4V1015.1z M487.7,1001.2l10.6,3.4l-8.9,7.7h-8L487.7,1001.2z"/>
	<path class="st6" d="M496.4,1038.3v-0.1c0-6.8,5.1-10.2,12.8-10.2c3.1,0,6,0.5,7.8,1.3v-0.5c0-3.4-2.1-5.4-6.5-5.4
		c-3.4,0-6.1,0.7-9,1.8l-2.3-8c3.7-1.5,7.6-2.5,13.2-2.5c5.8,0,9.8,1.4,12.4,4c2.5,2.4,3.5,5.8,3.5,10.4v18.7h-11.3v-3.4
		c-2.3,2.5-5.3,4.2-9.6,4.2C501.1,1048.4,496.4,1044.8,496.4,1038.3z M517.1,1035.9v-1.5c-1.2-0.5-2.8-0.8-4.5-0.8
		c-3.4,0-5.2,1.6-5.2,4v0.1c0,2.2,1.7,3.6,4,3.6C514.7,1041.2,517.1,1039.2,517.1,1035.9z"/>
	<path class="st6" d="M550.8,1031.5v-0.1c0-9.5,6.8-17,16.4-17c11.2,0,16.4,8.3,16.4,17.8c0,0.7,0,1.6-0.1,2.3h-21.8
		c0.9,3.6,3.4,5.4,7,5.4c2.8,0,4.9-1,7.2-3.3l6.3,5.2c-3.1,4-7.6,6.6-14.1,6.6C558,1048.5,550.8,1041.6,550.8,1031.5z M573,1028.7
		c-0.4-3.6-2.6-5.9-5.7-5.9c-3.1,0-5,2.3-5.7,5.9H573z"/>
	<path class="st6" d="M588.6,1015.1H600v4.6c2.1-2.7,5.1-5.3,9.8-5.3c7,0,11.1,4.5,11.1,12v21.3h-11.4V1030c0-3.6-1.8-5.5-4.6-5.5
		s-4.8,1.9-4.8,5.5v17.7h-11.4V1015.1z"/>
	<path class="st6" d="M655.8,1015.8h-12.6v-10.2h36.9v10.2h-12.7v31.9h-11.7V1015.8z"/>
	<path class="st6" d="M677.7,1031.5v-0.1c0-9.5,6.8-17,16.4-17c11.2,0,16.4,8.3,16.4,17.8c0,0.7,0,1.6-0.1,2.3h-21.8
		c0.9,3.6,3.4,5.4,7,5.4c2.8,0,4.9-1,7.2-3.3l6.3,5.2c-3.1,4-7.6,6.6-14.1,6.6C685,1048.5,677.7,1041.6,677.7,1031.5z M699.9,1028.7
		c-0.4-3.6-2.6-5.9-5.7-5.9c-3.1,0-5,2.3-5.7,5.9H699.9z"/>
	<path class="st6" d="M714.2,1031.5v-0.1c0-9.2,7.1-17,17.4-17c6.7,0,11.1,2.9,13.9,7.2l-7.7,5.8c-1.6-2.1-3.4-3.4-6.1-3.4
		c-3.7,0-6.4,3.3-6.4,7.3v0.1c0,4.2,2.7,7.4,6.5,7.4c2.8,0,4.5-1.3,6.3-3.4l7.7,5.5c-3.1,4.5-7.3,7.5-14.5,7.5
		C721.4,1048.5,714.2,1040.8,714.2,1031.5z"/>
	<path class="st6" d="M749.8,1015.1h11.4v4.6c2.1-2.7,5.1-5.3,9.8-5.3c7,0,11.1,4.5,11.1,12v21.3h-11.4V1030c0-3.6-1.8-5.5-4.6-5.5
		c-2.8,0-4.8,1.9-4.8,5.5v17.7h-11.4V1015.1z"/>
	<path class="st6" d="M786.7,1031.5v-0.1c0-9.3,7.6-17,18-17c10.4,0,18,7.7,18,16.9v0.1c0,9.3-7.7,17-18.1,17
		C794.2,1048.5,786.7,1040.9,786.7,1031.5z M811.6,1031.5v-0.1c0-4-2.9-7.4-7-7.4c-4.2,0-6.8,3.3-6.8,7.3v0.1c0,4,2.9,7.3,6.9,7.3
		C808.9,1038.8,811.6,1035.5,811.6,1031.5z"/>
	<path class="st6" d="M827.8,1003.7h11.4v44h-11.4V1003.7z"/>
	<path class="st6" d="M844.4,1031.5v-0.1c0-9.3,7.6-17,18-17s18,7.7,18,16.9v0.1c0,9.3-7.7,17-18.1,17
		C851.9,1048.5,844.4,1040.9,844.4,1031.5z M869.2,1031.5v-0.1c0-4-2.9-7.4-7-7.4c-4.2,0-6.8,3.3-6.8,7.3v0.1c0,4,2.9,7.3,6.9,7.3
		C866.5,1038.8,869.2,1035.5,869.2,1031.5z"/>
	<path class="st6" d="M884.9,1053.7l3.7-7.6c3.6,1.9,7,3.1,11.4,3.1c5.7,0,8.5-2.8,8.5-8v-1.3c-2.3,2.7-5.2,4.9-10,4.9
		c-8,0-14.5-5.8-14.5-15.1v-0.1c0-9.4,6.6-15.2,14.1-15.2c5,0,7.8,2,10.2,4.6v-3.9h11.4v24.8c0,5.9-1.4,10.2-4.2,13
		c-3,3.1-7.5,4.6-14.3,4.6C894.9,1057.4,889.7,1056.1,884.9,1053.7z M908.5,1029.7v-0.1c0-3.6-2.8-6.3-6.7-6.3
		c-3.9,0-6.7,2.7-6.7,6.4v0.1c0,3.6,2.8,6.3,6.7,6.3C905.7,1036,908.5,1033.3,908.5,1029.7z"/>
	<path class="st6" d="M926.2,1015.1h11.4v32.6h-11.4V1015.1z M933.8,1001.2l10.6,3.4l-8.9,7.7h-8L933.8,1001.2z"/>
	<path class="st6" d="M942.4,1038.3v-0.1c0-6.8,5.1-10.2,12.8-10.2c3.1,0,6,0.5,7.8,1.3v-0.5c0-3.4-2.1-5.4-6.5-5.4
		c-3.4,0-6.1,0.7-9,1.8l-2.3-8c3.7-1.5,7.6-2.5,13.2-2.5c5.8,0,9.8,1.4,12.4,4c2.5,2.4,3.5,5.8,3.5,10.4v18.7H963v-3.4
		c-2.3,2.5-5.3,4.2-9.6,4.2C947.1,1048.4,942.4,1044.8,942.4,1038.3z M963.1,1035.9v-1.5c-1.2-0.5-2.8-0.8-4.5-0.8
		c-3.4,0-5.2,1.6-5.2,4v0.1c0,2.2,1.7,3.6,4,3.6C960.8,1041.2,963.1,1039.2,963.1,1035.9z"/>
	<path class="st6" d="M442.6,1077.5h11.3l18,42.5h-12.5l-3-7.6H440l-3,7.6h-12.2L442.6,1077.5z M452.9,1103.3l-4.7-11.9l-4.8,11.9
		H452.9z"/>
	<path class="st6" d="M474.3,1108.6v-21.3h11.4v17.7c0,3.6,1.8,5.5,4.6,5.5c2.8,0,4.8-1.9,4.8-5.5v-17.7h11.4v32.6h-11.4v-4.5
		c-2,2.7-5.1,5.2-9.8,5.2C478.4,1120.7,474.3,1116.1,474.3,1108.6z"/>
	<path class="st6" d="M514.7,1109.8v-13.3h-3.9v-9.2h3.9v-8.3h11.4v8.3h7.6v9.2h-7.6v11.1c0,2.3,1,3.3,3.1,3.3c1.5,0,3-0.4,4.3-1.1
		v8.9c-2.1,1.1-4.8,1.9-8,1.9C518.7,1120.6,514.7,1117.6,514.7,1109.8z"/>
	<path class="st6" d="M536.5,1103.8v-0.1c0-9.3,7.6-17,18-17s18,7.7,18,16.9v0.1c0,9.3-7.7,17-18.1,17
		C544,1120.8,536.5,1113.2,536.5,1103.8z M561.4,1103.8v-0.1c0-4-2.9-7.4-7-7.4c-4.2,0-6.8,3.3-6.8,7.3v0.1c0,4,2.9,7.3,6.9,7.3
		C558.6,1111.1,561.4,1107.7,561.4,1103.8z"/>
	<path class="st6" d="M577.3,1087.4h11.4v4.5c2.1-2.7,5.1-5.2,9.7-5.2c4.3,0,7.7,1.9,9.4,5.3c2.8-3.3,6.1-5.3,10.9-5.3
		c7,0,11.1,4.3,11.1,11.9v21.4h-11.4v-17.7c0-3.6-1.7-5.5-4.5-5.5c-2.7,0-4.7,1.9-4.7,5.5v17.7h-11.4v-17.7c0-3.6-1.8-5.5-4.5-5.5
		s-4.6,1.9-4.6,5.5v17.7h-11.4V1087.4z"/>
	<path class="st6" d="M634.5,1103.8v-0.1c0-9.3,7.6-17,18-17c10.4,0,18,7.7,18,16.9v0.1c0,9.3-7.7,17-18.1,17
		C642,1120.8,634.5,1113.2,634.5,1103.8z M659.4,1103.8v-0.1c0-4-2.9-7.4-7-7.4c-4.2,0-6.8,3.3-6.8,7.3v0.1c0,4,2.9,7.3,6.9,7.3
		C656.7,1111.1,659.4,1107.7,659.4,1103.8z"/>
	<path class="st6" d="M677,1109.8v-13.3h-3.9v-9.2h3.9v-8.3h11.4v8.3h7.6v9.2h-7.6v11.1c0,2.3,1,3.3,3.1,3.3c1.5,0,3-0.4,4.3-1.1
		v8.9c-2.1,1.1-4.8,1.9-8,1.9C681,1120.6,677,1117.6,677,1109.8z"/>
	<path class="st6" d="M700.9,1087.4h11.4v6.6c1.9-4.4,4.8-7.3,10.3-7.1v12h-1c-6,0-9.3,3.4-9.3,10.9v10.2h-11.4V1087.4z"/>
	<path class="st6" d="M726.8,1076h11.9v8.4h-11.9V1076z M727,1087.4h11.4v32.6H727V1087.4z"/>
	<path class="st6" d="M743.8,1112.4l15-16h-14.5v-9h29.6v7.5l-15.1,16h15.1v9.1h-30.2V1112.4z"/>
</g>
</svg>
