<?xml version="1.0" encoding="utf-8"?>
<!-- Generator: Adobe Illustrator 27.9.0, SVG Export Plug-In . SVG Version: 6.00 Build 0)  -->
<svg version="1.1" id="Capa_1" xmlns="http://www.w3.org/2000/svg" xmlns:xlink="http://www.w3.org/1999/xlink" x="0px" y="0px"
	 viewBox="0 0 1200 1200" style="enable-background:new 0 0 1200 1200;" xml:space="preserve">
<style type="text/css">
	.st0{fill:#CE172E;}
	.st1{fill:#BFBEBE;}
	.st2{fill:#6D0A16;}
	.st3{fill:#37A6DE;}
	.st4{fill:#FFFFFF;}
	.st5{fill:#070707;}
	.st6{fill:#662482;}
	.st7{fill:#89DB3B;}
	.st8{fill:#0B0B5E;}
</style>
<g>
	<g>
		<path class="st8" d="M402.9,799h44.4v160.3h-44.4V799z"/>
		<path class="st8" d="M515.8,838H468V799h140.4V838h-48.1v121.4h-44.4V838z"/>
		<path class="st8" d="M627.8,799h46.9l38.2,62.1l38.2-62.1h46.9v160.3H754v-92.1L713,930h-0.9l-40.8-62.5v91.8h-43.5V799z"/>
	</g>
	<g>
		<g>
			<path class="st8" d="M600,748.2c-39.1,0-77-7.7-112.7-22.8c-34.5-14.6-65.5-35.5-92-62.1c-26.6-26.6-47.5-57.6-62.1-92
				c-15.1-35.7-22.8-73.6-22.8-112.7c0-39.1,7.7-77,22.8-112.7c14.6-34.5,35.5-65.5,62.1-92c26.6-26.6,57.6-47.5,92-62.1
				C523,176.7,560.9,169,600,169s77,7.7,112.7,22.8c34.5,14.6,65.5,35.5,92,62.1c26.6,26.6,47.5,57.6,62.1,92
				c15.1,35.7,22.8,73.6,22.8,112.7c0,39.1-7.7,77-22.8,112.7c-14.6,34.5-35.5,65.5-62.1,92c-26.6,26.6-57.6,47.5-92,62.1
				C677,740.5,639.1,748.2,600,748.2z M600,213c-65.6,0-127.3,25.5-173.7,71.9S354.4,393,354.4,458.6c0,65.6,25.5,127.3,71.9,173.7
				s108.1,71.9,173.7,71.9s127.3-25.5,173.7-71.9s71.9-108.1,71.9-173.7c0-65.6-25.5-127.3-71.9-173.7S665.6,213,600,213z"/>
		</g>
		<g>
			<path class="st8" d="M816.1,426v67.2h-76.5c2.8-11.1,4.2-22.7,4.2-34.6c0-11.2-1.3-22.1-3.7-32.6c-3.5-15-9.3-29.1-17.1-41.8
				c-11.8-19.4-28-35.8-47.3-47.8c-12.8-8-27-14-42.1-17.6c-10.8-2.6-22-4-33.6-4s-22.8,1.4-33.6,4c-15.1,3.6-29.3,9.6-42.1,17.6
				c-19.3,12-35.5,28.4-47.3,47.8c-7.8,12.8-13.6,26.9-17.1,41.8c-2.4,10.5-3.7,21.4-3.7,32.6c0,11.9,1.5,23.5,4.2,34.6
				c3.6,14.7,9.6,28.6,17.4,41.1c12,19.3,28.4,35.5,47.7,47.3c12.5,7.6,26.3,13.4,40.9,16.9c10.8,2.6,22,4,33.6,4s22.8-1.4,33.6-4
				v77.2h-67.2v-32.3c-26.2-4.7-50.9-14.9-72.7-30L471,636.1l-47.5-47.5l22.5-22.5c-15.4-21.9-25.7-46.7-30.6-72.9h-31.4V426H415
				c4.6-26.5,14.9-51.6,30.1-73.7l-21.7-21.7L471,283l21.5,21.5c22.2-15.5,47.3-26,73.9-30.8v-30.3h67.2v30.3
				c26.6,4.8,51.7,15.2,73.9,30.8L729,283l47.5,47.5l-21.7,21.7c15.3,22.1,25.5,47.2,30.1,73.7H816.1z"/>
		</g>
		<path class="st1" d="M754,566.1l-31.8-31.8L686,498c0.7-1.6,1.4-3.2,2.1-4.9c4.2-10.7,6.6-22.4,6.6-34.6c0-11.5-2-22.4-5.8-32.6
			c-0.7-1.9-1.4-3.7-2.2-5.5c-9.3-21.1-26.2-38.2-47.1-47.9c-1.9-0.9-3.9-1.7-5.8-2.5c-10.4-4-21.8-6.2-33.6-6.2s-23.2,2.2-33.6,6.2
			c-2,0.7-3.9,1.6-5.8,2.5c-21,9.6-37.8,26.7-47.1,47.9c-0.8,1.8-1.5,3.6-2.2,5.5c-3.8,10.2-5.8,21.2-5.8,32.6
			c0,12.2,2.3,23.9,6.6,34.6c0.6,1.6,1.3,3.3,2.1,4.9c9.6,21,26.7,37.8,47.9,47.1c1.5,0.7,3,1.3,4.5,1.8c10.4,4,21.8,6.2,33.6,6.2
			s23.2-2.2,33.6-6.2c1.5-0.6,3-1.2,4.5-1.8l36.4,36.4l31.9,31.9l20.3,20.3c18.2-13.2,34.3-29.2,47.7-47.4L754,566.1z M650.5,462.5
			c-0.9,11.8-5.9,22.5-13.5,30.7c-1,1.1-2.2,2.2-3.3,3.2c-8.5,7.5-19.5,12.3-31.5,12.7c-0.7,0-1.4,0-2.1,0s-1.4,0-2.1,0
			c-12.1-0.5-23.1-5.2-31.5-12.7c-1.2-1-2.3-2.1-3.3-3.2c-7.7-8.2-12.6-18.8-13.5-30.7c-0.1-1.3-0.2-2.6-0.2-3.9c0-0.7,0-1.4,0-2.1
			c0.5-11.6,4.9-22.2,11.9-30.5c1.6-1.9,3.3-3.6,5.1-5.2c8-7.1,18.3-11.8,29.7-12.6c1.3-0.1,2.6-0.2,3.9-0.2s2.6,0,3.9,0.2
			c11.3,0.9,21.6,5.5,29.7,12.6c1.8,1.6,3.5,3.4,5.1,5.2c7,8.3,11.4,18.9,11.9,30.5c0,0.7,0,1.4,0,2.1
			C650.6,459.9,650.6,461.2,650.5,462.5z"/>
	</g>
</g>
<g>
	<path class="st8" d="M211.6,1005.5h11.7v42.2h-11.7V1005.5z"/>
	<path class="st8" d="M230.3,1015.1h11.4v4.6c2.1-2.7,5.1-5.3,9.8-5.3c7,0,11.1,4.5,11.1,12v21.3h-11.4V1030c0-3.6-1.8-5.5-4.6-5.5
		c-2.8,0-4.8,1.9-4.8,5.5v17.7h-11.4V1015.1z"/>
	<path class="st8" d="M268.2,1053.7l3.7-7.6c3.6,1.9,7,3.1,11.4,3.1c5.7,0,8.5-2.8,8.5-8v-1.3c-2.3,2.7-5.2,4.9-10,4.9
		c-8,0-14.5-5.8-14.5-15.1v-0.1c0-9.4,6.6-15.2,14.1-15.2c5,0,7.8,2,10.2,4.6v-3.9h11.4v24.8c0,5.9-1.4,10.2-4.2,13
		c-3,3.1-7.5,4.6-14.3,4.6C278.2,1057.4,273,1056.1,268.2,1053.7z M291.9,1029.7v-0.1c0-3.6-2.8-6.3-6.7-6.3c-3.9,0-6.7,2.7-6.7,6.4
		v0.1c0,3.6,2.8,6.3,6.7,6.3S291.9,1033.3,291.9,1029.7z"/>
	<path class="st8" d="M307.9,1031.5v-0.1c0-9.5,6.8-17,16.4-17c11.2,0,16.4,8.3,16.4,17.8c0,0.7,0,1.6-0.1,2.3h-21.8
		c0.9,3.6,3.4,5.4,7,5.4c2.8,0,4.9-1,7.2-3.3l6.3,5.2c-3.1,4-7.6,6.6-14.1,6.6C315.2,1048.5,307.9,1041.6,307.9,1031.5z
		 M330.1,1028.7c-0.4-3.6-2.6-5.9-5.7-5.9c-3.1,0-5,2.3-5.7,5.9H330.1z"/>
	<path class="st8" d="M345.7,1015.1h11.4v4.6c2.1-2.7,5.1-5.3,9.8-5.3c7,0,11.1,4.5,11.1,12v21.3h-11.4V1030c0-3.6-1.8-5.5-4.6-5.5
		c-2.8,0-4.8,1.9-4.8,5.5v17.7h-11.4V1015.1z"/>
	<path class="st8" d="M384,1003.7h11.9v8.4H384V1003.7z M384.2,1015.1h11.4v32.6h-11.4V1015.1z"/>
	<path class="st8" d="M400.8,1031.5v-0.1c0-9.5,6.8-17,16.4-17c11.2,0,16.4,8.3,16.4,17.8c0,0.7,0,1.6-0.1,2.3h-21.8
		c0.9,3.6,3.4,5.4,7,5.4c2.8,0,4.9-1,7.2-3.3l6.3,5.2c-3.1,4-7.6,6.6-14.1,6.6C408,1048.5,400.8,1041.6,400.8,1031.5z M422.9,1028.7
		c-0.4-3.6-2.6-5.9-5.7-5.9c-3.1,0-5,2.3-5.7,5.9H422.9z"/>
	<path class="st8" d="M438.5,1015.1H450v6.6c1.9-4.4,4.8-7.3,10.3-7.1v12h-1c-6,0-9.3,3.4-9.3,10.9v10.2h-11.4V1015.1z"/>
	<path class="st8" d="M464.6,1015.1H476v32.6h-11.4V1015.1z M472.3,1001.2l10.6,3.4l-8.9,7.7h-8L472.3,1001.2z"/>
	<path class="st8" d="M480.9,1038.3v-0.1c0-6.8,5.1-10.2,12.8-10.2c3.1,0,6,0.5,7.8,1.3v-0.5c0-3.4-2.1-5.4-6.5-5.4
		c-3.4,0-6.1,0.7-9,1.8l-2.3-8c3.7-1.5,7.6-2.5,13.2-2.5c5.8,0,9.8,1.4,12.4,4c2.5,2.4,3.5,5.8,3.5,10.4v18.7h-11.3v-3.4
		c-2.3,2.5-5.3,4.2-9.6,4.2C485.6,1048.4,480.9,1044.8,480.9,1038.3z M501.6,1035.9v-1.5c-1.2-0.5-2.8-0.8-4.5-0.8
		c-3.4,0-5.2,1.6-5.2,4v0.1c0,2.2,1.7,3.6,4,3.6C499.3,1041.2,501.6,1039.2,501.6,1035.9z"/>
	<path class="st8" d="M535.3,1031.5v-0.1c0-9.5,6.8-17,16.4-17c11.2,0,16.4,8.3,16.4,17.8c0,0.7,0,1.6-0.1,2.3h-21.8
		c0.9,3.6,3.4,5.4,7,5.4c2.8,0,4.9-1,7.2-3.3l6.3,5.2c-3.1,4-7.6,6.6-14.1,6.6C542.6,1048.5,535.3,1041.6,535.3,1031.5z
		 M557.5,1028.7c-0.4-3.6-2.6-5.9-5.7-5.9c-3.1,0-5,2.3-5.7,5.9H557.5z"/>
	<path class="st8" d="M573.1,1015.1h11.4v4.6c2.1-2.7,5.1-5.3,9.8-5.3c7,0,11.1,4.5,11.1,12v21.3H594V1030c0-3.6-1.8-5.5-4.6-5.5
		c-2.8,0-4.8,1.9-4.8,5.5v17.7h-11.4V1015.1z"/>
	<path class="st8" d="M640.3,1015.8h-12.6v-10.2h36.9v10.2H652v31.9h-11.7V1015.8z"/>
	<path class="st8" d="M662.3,1031.5v-0.1c0-9.5,6.8-17,16.4-17c11.2,0,16.4,8.3,16.4,17.8c0,0.7,0,1.6-0.1,2.3h-21.8
		c0.9,3.6,3.4,5.4,7,5.4c2.8,0,4.9-1,7.2-3.3l6.3,5.2c-3.1,4-7.6,6.6-14.1,6.6C669.5,1048.5,662.3,1041.6,662.3,1031.5z
		 M684.4,1028.7c-0.4-3.6-2.6-5.9-5.7-5.9c-3.1,0-5,2.3-5.7,5.9H684.4z"/>
	<path class="st8" d="M698.8,1031.5v-0.1c0-9.2,7.1-17,17.4-17c6.7,0,11.1,2.9,13.9,7.2l-7.7,5.8c-1.6-2.1-3.4-3.4-6.1-3.4
		c-3.7,0-6.4,3.3-6.4,7.3v0.1c0,4.2,2.7,7.4,6.5,7.4c2.8,0,4.5-1.3,6.3-3.4l7.7,5.5c-3.1,4.5-7.3,7.5-14.5,7.5
		C705.9,1048.5,698.8,1040.8,698.8,1031.5z"/>
	<path class="st8" d="M734.3,1015.1h11.4v4.6c2.1-2.7,5.1-5.3,9.8-5.3c7,0,11.1,4.5,11.1,12v21.3h-11.4V1030c0-3.6-1.8-5.5-4.6-5.5
		c-2.8,0-4.8,1.9-4.8,5.5v17.7h-11.4V1015.1z"/>
	<path class="st8" d="M771.2,1031.5v-0.1c0-9.3,7.6-17,18-17c10.4,0,18,7.7,18,16.9v0.1c0,9.3-7.7,17-18.1,17
		C778.8,1048.5,771.2,1040.9,771.2,1031.5z M796.1,1031.5v-0.1c0-4-2.9-7.4-7-7.4c-4.2,0-6.8,3.3-6.8,7.3v0.1c0,4,2.9,7.3,6.9,7.3
		C793.4,1038.8,796.1,1035.5,796.1,1031.5z"/>
	<path class="st8" d="M812.3,1003.7h11.4v44h-11.4V1003.7z"/>
	<path class="st8" d="M828.9,1031.5v-0.1c0-9.3,7.6-17,18-17s18,7.7,18,16.9v0.1c0,9.3-7.7,17-18.1,17
		C836.4,1048.5,828.9,1040.9,828.9,1031.5z M853.8,1031.5v-0.1c0-4-2.9-7.4-7-7.4c-4.2,0-6.8,3.3-6.8,7.3v0.1c0,4,2.9,7.3,6.9,7.3
		C851,1038.8,853.8,1035.5,853.8,1031.5z"/>
	<path class="st8" d="M869.4,1053.7l3.7-7.6c3.6,1.9,7,3.1,11.4,3.1c5.7,0,8.5-2.8,8.5-8v-1.3c-2.3,2.7-5.2,4.9-10,4.9
		c-8,0-14.5-5.8-14.5-15.1v-0.1c0-9.4,6.6-15.2,14.1-15.2c5,0,7.8,2,10.2,4.6v-3.9h11.4v24.8c0,5.9-1.4,10.2-4.2,13
		c-3,3.1-7.5,4.6-14.3,4.6C879.4,1057.4,874.2,1056.1,869.4,1053.7z M893,1029.7v-0.1c0-3.6-2.8-6.3-6.7-6.3c-3.9,0-6.7,2.7-6.7,6.4
		v0.1c0,3.6,2.8,6.3,6.7,6.3S893,1033.3,893,1029.7z"/>
	<path class="st8" d="M910.7,1015.1h11.4v32.6h-11.4V1015.1z M918.3,1001.2l10.6,3.4l-8.9,7.7h-8L918.3,1001.2z"/>
	<path class="st8" d="M926.9,1038.3v-0.1c0-6.8,5.1-10.2,12.8-10.2c3.1,0,6,0.5,7.8,1.3v-0.5c0-3.4-2.1-5.4-6.5-5.4
		c-3.4,0-6.1,0.7-9,1.8l-2.3-8c3.7-1.5,7.6-2.5,13.2-2.5c5.8,0,9.8,1.4,12.4,4c2.5,2.4,3.5,5.8,3.5,10.4v18.7h-11.3v-3.4
		c-2.3,2.5-5.3,4.2-9.6,4.2C931.6,1048.4,926.9,1044.8,926.9,1038.3z M947.7,1035.9v-1.5c-1.2-0.5-2.8-0.8-4.5-0.8
		c-3.4,0-5.2,1.6-5.2,4v0.1c0,2.2,1.7,3.6,4,3.6C945.3,1041.2,947.7,1039.2,947.7,1035.9z"/>
	<path class="st8" d="M962.2,1043.5l4.3-6.9c3.8,2.5,7.8,3.7,11.1,3.7c2,0,3-0.6,3-1.7v-0.1c0-1.4-1.9-1.9-5.3-2.8
		c-6.4-1.6-11.6-3.9-11.6-10.4v-0.1c0-6.9,5.6-10.8,13.1-10.8c4.8,0,9.6,1.4,13.4,3.8l-3.9,7.2c-3.4-1.9-7-3.1-9.6-3.1
		c-1.7,0-2.7,0.7-2.7,1.6v0.1c0,1.3,1.9,1.9,5.3,2.9c6.4,1.7,11.6,4,11.6,10.4v0.1c0,7.2-5.4,10.9-13.3,10.9
		C972,1048.4,966.7,1046.8,962.2,1043.5z"/>
	<path class="st8" d="M362.7,1103.8v-0.1c0-10.6,6.7-17,14.4-17c4.9,0,7.8,2.2,9.9,4.7V1076h11.4v44H387v-4.3
		c-2.2,2.7-5,5.1-9.9,5.1C369.4,1120.7,362.7,1114.2,362.7,1103.8z M387.3,1103.7v-0.1c0-4.3-3-7.4-6.7-7.4c-3.6,0-6.7,3.1-6.7,7.4
		v0.1c0,4.3,3.1,7.4,6.7,7.4C384.3,1111.1,387.3,1108,387.3,1103.7z"/>
	<path class="st8" d="M403.4,1103.8v-0.1c0-9.5,6.8-17,16.4-17c11.2,0,16.4,8.3,16.4,17.8c0,0.7,0,1.6-0.1,2.3h-21.8
		c0.9,3.6,3.4,5.4,7,5.4c2.8,0,4.9-1,7.2-3.3l6.3,5.2c-3.1,4-7.6,6.6-14.1,6.6C410.6,1120.8,403.4,1113.9,403.4,1103.8z M425.5,1101
		c-0.4-3.6-2.6-5.9-5.7-5.9c-3.1,0-5,2.3-5.7,5.9H425.5z"/>
	<path class="st8" d="M459.9,1077.8h12.3l10.1,16.3l10.1-16.3h12.3v42.2H493v-24.2l-10.8,16.5H482l-10.7-16.4v24.2h-11.4V1077.8z"/>
	<path class="st8" d="M509.9,1110.6v-0.1c0-6.8,5.1-10.2,12.8-10.2c3.1,0,6,0.5,7.8,1.3v-0.5c0-3.4-2.1-5.4-6.5-5.4
		c-3.4,0-6.1,0.7-9,1.8l-2.3-8c3.7-1.5,7.6-2.5,13.2-2.5c5.8,0,9.8,1.4,12.4,4c2.5,2.4,3.5,5.8,3.5,10.4v18.7h-11.3v-3.4
		c-2.3,2.5-5.3,4.2-9.6,4.2C514.6,1120.7,509.9,1117.1,509.9,1110.6z M530.6,1108.2v-1.5c-1.2-0.5-2.8-0.8-4.5-0.8
		c-3.4,0-5.2,1.6-5.2,4v0.1c0,2.2,1.7,3.6,4,3.6C528.3,1113.5,530.6,1111.5,530.6,1108.2z"/>
	<path class="st8" d="M547.6,1087.4H559v4.6c2.1-2.7,5.1-5.3,9.8-5.3c7,0,11.1,4.5,11.1,12v21.3h-11.4v-17.7c0-3.6-1.8-5.5-4.6-5.5
		c-2.8,0-4.8,1.9-4.8,5.5v17.7h-11.4V1087.4z"/>
	<path class="st8" d="M585.5,1108.6v-21.3H597v17.7c0,3.6,1.8,5.5,4.6,5.5c2.8,0,4.8-1.9,4.8-5.5v-17.7h11.4v32.6h-11.4v-4.5
		c-2,2.7-5.1,5.2-9.8,5.2C589.7,1120.7,585.5,1116.1,585.5,1108.6z"/>
	<path class="st8" d="M626,1096.5h-3.8v-9h3.8v-0.7c0-3.8,0.9-6.6,2.8-8.4c2-2,4.6-2.8,8.6-2.8c3.4,0,5.7,0.4,7.4,0.9v8.1
		c-1.4-0.4-2.6-0.7-4.3-0.7c-2.2,0-3.3,1-3.3,3.1v0.8h7.5v8.8h-7.3v23.4H626V1096.5z"/>
	<path class="st8" d="M645.8,1110.6v-0.1c0-6.8,5.1-10.2,12.8-10.2c3.1,0,6,0.5,7.8,1.3v-0.5c0-3.4-2.1-5.4-6.5-5.4
		c-3.4,0-6.1,0.7-9,1.8l-2.3-8c3.7-1.5,7.6-2.5,13.2-2.5c5.8,0,9.8,1.4,12.4,4c2.5,2.4,3.5,5.8,3.5,10.4v18.7h-11.3v-3.4
		c-2.3,2.5-5.3,4.2-9.6,4.2C650.5,1120.7,645.8,1117.1,645.8,1110.6z M666.5,1108.2v-1.5c-1.2-0.5-2.8-0.8-4.5-0.8
		c-3.4,0-5.2,1.6-5.2,4v0.1c0,2.2,1.7,3.6,4,3.6C664.2,1113.5,666.5,1111.5,666.5,1108.2z"/>
	<path class="st8" d="M682.2,1103.8v-0.1c0-9.2,7.1-17,17.4-17c6.7,0,11.1,2.9,13.9,7.2l-7.7,5.8c-1.6-2.1-3.4-3.4-6.1-3.4
		c-3.7,0-6.4,3.3-6.4,7.3v0.1c0,4.2,2.7,7.4,6.5,7.4c2.8,0,4.5-1.3,6.3-3.4l7.7,5.5c-3.1,4.5-7.3,7.5-14.5,7.5
		C689.4,1120.8,682.2,1113,682.2,1103.8z"/>
	<path class="st8" d="M719.8,1109.8v-13.3h-3.9v-9.2h3.9v-8.3h11.4v8.3h7.6v9.2h-7.6v11.1c0,2.3,1,3.3,3.1,3.3c1.5,0,3-0.4,4.3-1.1
		v8.9c-2.1,1.1-4.8,1.9-8,1.9C723.8,1120.6,719.8,1117.6,719.8,1109.8z"/>
	<path class="st8" d="M743.5,1108.6v-21.3h11.4v17.7c0,3.6,1.8,5.5,4.6,5.5c2.8,0,4.8-1.9,4.8-5.5v-17.7h11.4v32.6h-11.4v-4.5
		c-2,2.7-5.1,5.2-9.8,5.2C747.6,1120.7,743.5,1116.1,743.5,1108.6z"/>
	<path class="st8" d="M781.9,1087.4h11.4v6.6c1.9-4.4,4.8-7.3,10.3-7.1v12h-1c-6,0-9.3,3.4-9.3,10.9v10.2h-11.4V1087.4z"/>
	<path class="st8" d="M804.6,1110.6v-0.1c0-6.8,5.1-10.2,12.8-10.2c3.1,0,6,0.5,7.8,1.3v-0.5c0-3.4-2.1-5.4-6.5-5.4
		c-3.4,0-6.1,0.7-9,1.8l-2.3-8c3.7-1.5,7.6-2.5,13.2-2.5c5.8,0,9.8,1.4,12.4,4c2.5,2.4,3.5,5.8,3.5,10.4v18.7h-11.3v-3.4
		c-2.3,2.5-5.3,4.2-9.6,4.2C809.3,1120.7,804.6,1117.1,804.6,1110.6z M825.3,1108.2v-1.5c-1.2-0.5-2.8-0.8-4.5-0.8
		c-3.4,0-5.2,1.6-5.2,4v0.1c0,2.2,1.7,3.6,4,3.6C823,1113.5,825.3,1111.5,825.3,1108.2z"/>
</g>
</svg>
