<?xml version="1.0" encoding="utf-8"?>
<!-- Generator: Adobe Illustrator 27.9.0, SVG Export Plug-In . SVG Version: 6.00 Build 0)  -->
<svg version="1.1" id="Capa_1" xmlns="http://www.w3.org/2000/svg" xmlns:xlink="http://www.w3.org/1999/xlink" x="0px" y="0px"
	 viewBox="0 0 1283.2 1200" style="enable-background:new 0 0 1283.2 1200;" xml:space="preserve">
<style type="text/css">
	.st0{fill:#CE172E;}
	.st1{fill:#BFBEBE;}
	.st2{fill:#6D0A16;}
	.st3{fill:#37A6DE;}
	.st4{fill:#FFFFFF;}
	.st5{fill:#070707;}
	.st6{fill:#662482;}
	.st7{fill:#89DB3B;}
	.st8{fill:#0B0B5E;}
</style>
<g>
	<g>
		<g>
			<path class="st0" d="M905.7,345.9c-14.6-34.5-35.5-65.5-62.1-92c-26.6-26.6-57.6-47.5-92-62.1c-35.7-15.1-73.6-22.8-112.7-22.8
				s-77,7.7-112.7,22.8c-34.5,14.6-65.5,35.5-92,62.1c-26.6,26.6-47.5,57.6-62.1,92c-15.1,35.7-22.8,73.6-22.8,112.7
				s7.7,77,22.8,112.7c14.6,34.5,35.5,65.5,62.1,92c18.6,18.6,39.3,34.4,61.9,47.2c9.7,5.5,19.8,10.5,30.2,14.9
				c17.5,7.4,35.6,13,54.1,16.8c5.5,1.1,11,2.1,16.6,2.9c13.9,2,27.9,3,42.1,3s28.3-1,42.1-3c5.6-0.8,11.1-1.8,16.6-2.9
				c18.5-3.8,36.5-9.4,54.1-16.8c10.4-4.4,20.5-9.4,30.2-14.9c22.6-12.8,43.3-28.6,61.9-47.2c26.6-26.6,47.5-57.6,62.1-92
				c15.1-35.7,22.8-73.6,22.8-112.7S920.8,381.6,905.7,345.9z M812.5,632.3c-9.6,9.6-19.9,18.4-30.8,26.1
				c-25.4,18.3-54,31.4-84.2,38.8c-5.5,1.3-11,2.5-16.6,3.4c-13.8,2.4-27.9,3.6-42.1,3.6c-14.3,0-28.3-1.2-42.1-3.6
				c-5.6-1-11.1-2.1-16.6-3.4c-30.3-7.4-58.8-20.5-84.2-38.8c-10.8-7.8-21.1-16.5-30.8-26.1c-46.4-46.4-71.9-108.1-71.9-173.7
				s25.6-127.3,71.9-173.7c46.4-46.4,108.1-71.9,173.7-71.9s127.3,25.6,173.7,71.9c46.4,46.4,71.9,108.1,71.9,173.7
				S858.9,585.9,812.5,632.3z"/>
		</g>
		<g>
			<path class="st1" d="M839.1,436.6c-4.9-45.5-25-87.6-57.8-120.4c-32.8-32.8-74.9-52.9-120.4-57.8v44.3
				c69.2,9.7,124.2,64.7,133.9,133.9c1,7.2,1.5,14.5,1.5,22s-0.5,14.8-1.5,22c-3.8,27-14.5,51.8-30.2,72.6
				c-8.9,11.8-19.4,22.2-31.1,31.1c-20.8,15.7-45.6,26.4-72.6,30.2c-7.2,1-14.5,1.5-22,1.5s-14.8-0.5-22-1.5
				c-69.2-9.7-124.2-64.7-133.9-133.9h-44.3c4.9,45.5,25,87.6,57.8,120.4c32.8,32.8,74.9,52.9,120.4,57.8c7.3,0.8,14.6,1.2,22,1.2
				c7.4,0,14.7-0.4,22-1.2c38.2-4.1,74.1-19,104-43.1c5.7-4.6,11.2-9.5,16.4-14.7c5.2-5.2,10.1-10.7,14.7-16.4
				c24.1-29.9,39-65.8,43.1-104c0.8-7.3,1.2-14.6,1.2-22C840.3,451.2,839.9,443.8,839.1,436.6z"/>
		</g>
		<path class="st0" d="M580.2,533.6v208.6c-18.5-3.8-36.5-9.4-54.1-16.8c-10.4-4.4-20.5-9.4-30.2-14.9V533.6
			c0-23.2,19-42.1,42.1-42.1c11.6,0,22.1,4.7,29.8,12.4C575.4,511.5,580.2,522,580.2,533.6z"/>
		<path class="st0" d="M681,456.1v289.1c-13.9,2-27.9,3-42.1,3s-28.3-1-42.1-3V456.1c0-23.2,19-42.1,42.1-42.1
			c11.6,0,22.1,4.7,29.7,12.4C676.2,434,681,444.5,681,456.1z"/>
		<path class="st0" d="M781.8,378.5v332c-9.7,5.5-19.8,10.5-30.2,14.9c-17.5,7.4-35.6,13-54.1,16.8V378.5c0-23.2,19-42.1,42.1-42.1
			c11.6,0,22.1,4.7,29.8,12.4C777,356.4,781.8,367,781.8,378.5z"/>
		<g>
			<path class="st1" d="M660.9,233.1v108.5c-7.1-1.3-14.5-2-22-2c-7.5,0-14.9,0.7-22,2c-16.5,3.1-31.8,9.6-45.1,18.7
				c-12.2,8.4-22.8,18.9-31.1,31.1c-9.1,13.3-15.6,28.6-18.7,45.1c-1.3,7.1-2,14.5-2,22c0,7.5,0.7,14.9,2,22H413.4v-44h25.2
				c4.1-38.2,19-74.1,43.1-104l-17.8-17.8l31.1-31.1l17.8,17.8c29.9-24.1,65.8-39,104-43.1v-25.2H660.9z"/>
		</g>
	</g>
	<g>
		<path class="st0" d="M332,799h44.4v121.4h77.6v38.9H332V799z"/>
		<path class="st0" d="M528.7,797.9h42.8l68.2,161.4h-47.6l-11.5-28.9h-62.1l-11.5,28.9h-46.5L528.7,797.9z M567.6,895.9l-17.9-45.3
			l-18.1,45.3H567.6z"/>
		<path class="st0" d="M639.8,879.6v-0.5c0-46.7,36.6-83.4,86.1-83.4c28.4,0,47.9,8.5,65,23.1l-26.1,31.6
			c-11.7-9.8-22.4-15.1-38.7-15.1c-22.9,0-41,19.2-41,43.7v0.5c0,26.1,18.1,44.7,43.5,44.7c11,0,19.2-2.3,25.6-6.6v-19.5h-31.4
			v-32.5h73.5v71.9c-17.2,14.4-40.1,25-69.6,25C676.6,962.5,639.8,928.4,639.8,879.6z"/>
		<path class="st0" d="M821.1,799h128.9v37.6h-85v24.5H942v35h-76.9v25.4h86.1v37.8H821.1V799z"/>
	</g>
</g>
<g>
	<path class="st0" d="M140.6,1005.5h11.7v31.9h20.4v10.2h-32.1V1005.5z"/>
	<path class="st0" d="M177.1,1003.7H189v8.4h-11.9V1003.7z M177.4,1015.1h11.4v32.6h-11.4V1015.1z"/>
	<path class="st0" d="M193.9,1031.5v-0.1c0-9.2,7.1-17,17.4-17c6.7,0,11.1,2.9,13.9,7.2l-7.7,5.8c-1.6-2.1-3.4-3.4-6.1-3.4
		c-3.7,0-6.4,3.3-6.4,7.3v0.1c0,4.2,2.7,7.4,6.5,7.4c2.8,0,4.5-1.3,6.3-3.4l7.7,5.5c-3.1,4.5-7.3,7.5-14.5,7.5
		C201.1,1048.5,193.9,1040.8,193.9,1031.5z"/>
	<path class="st0" d="M227.3,1031.5v-0.1c0-9.5,6.8-17,16.4-17c11.2,0,16.4,8.3,16.4,17.8c0,0.7,0,1.6-0.1,2.3h-21.8
		c0.9,3.6,3.4,5.4,7,5.4c2.8,0,4.9-1,7.2-3.3l6.3,5.2c-3.1,4-7.6,6.6-14.1,6.6C234.5,1048.5,227.3,1041.6,227.3,1031.5z
		 M249.5,1028.7c-0.4-3.6-2.6-5.9-5.7-5.9c-3.1,0-5,2.3-5.7,5.9H249.5z"/>
	<path class="st0" d="M265.1,1015.1h11.4v4.6c2.1-2.7,5.1-5.3,9.8-5.3c7,0,11.1,4.5,11.1,12v21.3H286V1030c0-3.6-1.8-5.5-4.6-5.5
		s-4.8,1.9-4.8,5.5v17.7h-11.4V1015.1z"/>
	<path class="st0" d="M302,1031.5v-0.1c0-9.2,7.1-17,17.4-17c6.7,0,11.1,2.9,13.9,7.2l-7.7,5.8c-1.6-2.1-3.4-3.4-6.1-3.4
		c-3.7,0-6.4,3.3-6.4,7.3v0.1c0,4.2,2.7,7.4,6.5,7.4c2.8,0,4.5-1.3,6.3-3.4l7.7,5.5c-3.1,4.5-7.3,7.5-14.5,7.5
		C309.2,1048.5,302,1040.8,302,1031.5z"/>
	<path class="st0" d="M337.6,1003.7h11.9v8.4h-11.9V1003.7z M337.8,1015.1h11.4v32.6h-11.4V1015.1z"/>
	<path class="st0" d="M354.1,1038.3v-0.1c0-6.8,5.1-10.2,12.8-10.2c3.1,0,6,0.5,7.8,1.3v-0.5c0-3.4-2.1-5.4-6.5-5.4
		c-3.4,0-6.1,0.7-9,1.8l-2.3-8c3.7-1.5,7.6-2.5,13.2-2.5c5.8,0,9.8,1.4,12.4,4c2.5,2.4,3.5,5.8,3.5,10.4v18.7h-11.3v-3.4
		c-2.3,2.5-5.3,4.2-9.6,4.2C358.8,1048.4,354.1,1044.8,354.1,1038.3z M374.8,1035.9v-1.5c-1.2-0.5-2.8-0.8-4.5-0.8
		c-3.4,0-5.2,1.6-5.2,4v0.1c0,2.2,1.7,3.6,4,3.6C372.5,1041.2,374.8,1039.2,374.8,1035.9z"/>
	<path class="st0" d="M393.5,1037.6v-13.3h-3.9v-9.2h3.9v-8.3h11.4v8.3h7.6v9.2h-7.6v11.1c0,2.3,1,3.3,3.1,3.3c1.5,0,3-0.4,4.3-1.1
		v8.9c-2.1,1.1-4.8,1.9-8,1.9C397.5,1048.3,393.5,1045.3,393.5,1037.6z"/>
	<path class="st0" d="M417.2,1036.4v-21.3h11.4v17.7c0,3.6,1.8,5.5,4.6,5.5c2.8,0,4.8-1.9,4.8-5.5v-17.7h11.4v32.6h-11.4v-4.5
		c-2,2.7-5.1,5.2-9.8,5.2C421.3,1048.4,417.2,1043.8,417.2,1036.4z"/>
	<path class="st0" d="M455.6,1015.1h11.4v6.6c1.9-4.4,4.8-7.3,10.3-7.1v12h-1c-6,0-9.3,3.4-9.3,10.9v10.2h-11.4V1015.1z"/>
	<path class="st0" d="M478.3,1038.3v-0.1c0-6.8,5.1-10.2,12.8-10.2c3.1,0,6,0.5,7.8,1.3v-0.5c0-3.4-2.1-5.4-6.5-5.4
		c-3.4,0-6.1,0.7-9,1.8l-2.3-8c3.7-1.5,7.6-2.5,13.2-2.5c5.8,0,9.8,1.4,12.4,4c2.5,2.4,3.5,5.8,3.5,10.4v18.7h-11.3v-3.4
		c-2.3,2.5-5.3,4.2-9.6,4.2C483,1048.4,478.3,1044.8,478.3,1038.3z M499,1035.9v-1.5c-1.2-0.5-2.8-0.8-4.5-0.8c-3.4,0-5.2,1.6-5.2,4
		v0.1c0,2.2,1.7,3.6,4,3.6C496.7,1041.2,499,1039.2,499,1035.9z"/>
	<path class="st0" d="M532.8,1031.5v-0.1c0-9.5,6.8-17,16.4-17c11.2,0,16.4,8.3,16.4,17.8c0,0.7,0,1.6-0.1,2.3h-21.8
		c0.9,3.6,3.4,5.4,7,5.4c2.8,0,4.9-1,7.2-3.3l6.3,5.2c-3.1,4-7.6,6.6-14.1,6.6C540,1048.5,532.8,1041.6,532.8,1031.5z M555,1028.7
		c-0.4-3.6-2.6-5.9-5.7-5.9c-3.1,0-5,2.3-5.7,5.9H555z"/>
	<path class="st0" d="M570.6,1015.1H582v4.6c2.1-2.7,5.1-5.3,9.8-5.3c7,0,11.1,4.5,11.1,12v21.3h-11.4V1030c0-3.6-1.8-5.5-4.6-5.5
		c-2.8,0-4.8,1.9-4.8,5.5v17.7h-11.4V1015.1z"/>
	<path class="st0" d="M642.1,1005.2h11.3l18,42.5h-12.5l-3-7.6h-16.3l-3,7.6h-12.2L642.1,1005.2z M652.3,1031l-4.7-11.9l-4.8,11.9
		H652.3z"/>
	<path class="st0" d="M672,1031.5v-0.1c0-10.6,6.7-17,14.4-17c4.9,0,7.8,2.2,9.9,4.7v-15.4h11.4v44h-11.4v-4.3
		c-2.2,2.7-5,5.1-9.9,5.1C678.7,1048.4,672,1042,672,1031.5z M696.6,1031.4v-0.1c0-4.3-3-7.4-6.7-7.4c-3.6,0-6.7,3.1-6.7,7.4v0.1
		c0,4.3,3.1,7.4,6.7,7.4C693.6,1038.8,696.6,1035.8,696.6,1031.4z"/>
	<path class="st0" d="M713.9,1015.1h11.4v4.5c2.1-2.7,5.1-5.2,9.7-5.2c4.3,0,7.7,1.9,9.4,5.3c2.8-3.3,6.1-5.3,10.9-5.3
		c7,0,11.1,4.3,11.1,11.9v21.4h-11.4V1030c0-3.6-1.7-5.5-4.5-5.5s-4.7,1.9-4.7,5.5v17.7h-11.4V1030c0-3.6-1.8-5.5-4.5-5.5
		s-4.6,1.9-4.6,5.5v17.7h-11.4V1015.1z"/>
	<path class="st0" d="M772.5,1003.7h11.9v8.4h-11.9V1003.7z M772.7,1015.1h11.4v32.6h-11.4V1015.1z"/>
	<path class="st0" d="M790.5,1015.1H802v4.6c2.1-2.7,5.1-5.3,9.8-5.3c7,0,11.1,4.5,11.1,12v21.3h-11.4V1030c0-3.6-1.8-5.5-4.6-5.5
		c-2.8,0-4.8,1.9-4.8,5.5v17.7h-11.4V1015.1z"/>
	<path class="st0" d="M828.8,1003.7h11.9v8.4h-11.9V1003.7z M829,1015.1h11.4v32.6H829V1015.1z"/>
	<path class="st0" d="M844.5,1043.5l4.3-6.9c3.8,2.5,7.8,3.7,11.1,3.7c2,0,3-0.6,3-1.7v-0.1c0-1.4-1.9-1.9-5.3-2.8
		c-6.4-1.6-11.6-3.9-11.6-10.4v-0.1c0-6.9,5.6-10.8,13.1-10.8c4.8,0,9.6,1.4,13.4,3.8l-3.9,7.2c-3.4-1.9-7-3.1-9.6-3.1
		c-1.7,0-2.7,0.7-2.7,1.6v0.1c0,1.3,1.9,1.9,5.3,2.9c6.4,1.7,11.6,4,11.6,10.4v0.1c0,7.2-5.4,10.9-13.3,10.9
		C854.3,1048.4,849,1046.8,844.5,1043.5z"/>
	<path class="st0" d="M879.3,1037.6v-13.3h-3.9v-9.2h3.9v-8.3h11.4v8.3h7.6v9.2h-7.6v11.1c0,2.3,1,3.3,3.1,3.3c1.5,0,3-0.4,4.3-1.1
		v8.9c-2.1,1.1-4.8,1.9-8,1.9C883.2,1048.3,879.3,1045.3,879.3,1037.6z"/>
	<path class="st0" d="M903.2,1015.1h11.4v6.6c1.9-4.4,4.8-7.3,10.3-7.1v12h-1c-6,0-9.3,3.4-9.3,10.9v10.2h-11.4V1015.1z"/>
	<path class="st0" d="M925.9,1038.3v-0.1c0-6.8,5.1-10.2,12.8-10.2c3.1,0,6,0.5,7.8,1.3v-0.5c0-3.4-2.1-5.4-6.5-5.4
		c-3.4,0-6.1,0.7-9,1.8l-2.3-8c3.7-1.5,7.6-2.5,13.2-2.5c5.8,0,9.8,1.4,12.4,4c2.5,2.4,3.5,5.8,3.5,10.4v18.7h-11.3v-3.4
		c-2.3,2.5-5.3,4.2-9.6,4.2C930.6,1048.4,925.9,1044.8,925.9,1038.3z M946.6,1035.9v-1.5c-1.2-0.5-2.8-0.8-4.5-0.8
		c-3.4,0-5.2,1.6-5.2,4v0.1c0,2.2,1.7,3.6,4,3.6C944.3,1041.2,946.6,1039.2,946.6,1035.9z"/>
	<path class="st0" d="M962.3,1031.5v-0.1c0-9.2,7.1-17,17.4-17c6.7,0,11.1,2.9,13.9,7.2l-7.7,5.8c-1.6-2.1-3.4-3.4-6.1-3.4
		c-3.7,0-6.4,3.3-6.4,7.3v0.1c0,4.2,2.7,7.4,6.5,7.4c2.8,0,4.5-1.3,6.3-3.4l7.7,5.5c-3.1,4.5-7.3,7.5-14.5,7.5
		C969.5,1048.5,962.3,1040.8,962.3,1031.5z"/>
	<path class="st0" d="M997.9,1003.7h11.9v8.4h-11.9V1003.7z M998.1,1015.1h11.4v32.6h-11.4V1015.1z"/>
	<path class="st0" d="M1014.7,1031.5v-0.1c0-9.3,7.6-17,18-17c10.4,0,18,7.7,18,16.9v0.1c0,9.3-7.7,17-18.1,17
		C1022.2,1048.5,1014.7,1040.9,1014.7,1031.5z M1039.6,1031.5v-0.1c0-4-2.9-7.4-7-7.4c-4.2,0-6.8,3.3-6.8,7.3v0.1
		c0,4,2.9,7.3,6.9,7.3C1036.9,1038.8,1039.6,1035.5,1039.6,1031.5z M1034.5,1000.9l10.6,3.4l-8.9,7.7h-8L1034.5,1000.9z"/>
	<path class="st0" d="M1055.5,1015.1h11.4v4.6c2.1-2.7,5.1-5.3,9.8-5.3c7,0,11.1,4.5,11.1,12v21.3h-11.4V1030c0-3.6-1.8-5.5-4.6-5.5
		c-2.8,0-4.8,1.9-4.8,5.5v17.7h-11.4V1015.1z"/>
	<path class="st0" d="M1134,1015.1h11.7l-11.9,31.8c-2.9,7.7-5.8,10.6-12.4,10.6c-4.1,0-7.3-1.1-10.4-2.8l3.5-8
		c1.9,1.1,3.7,1.7,5,1.7c1.1,0,1.9-0.3,2.7-1.3l-12.8-32h11.9l6.5,19.6L1134,1015.1z"/>
	<path class="st0" d="M334.3,1099v-0.1c0-12.3,9.6-21.9,22.7-21.9c7.5,0,12.6,2.2,17.1,6.1l-6.9,8.3c-3.1-2.6-5.9-4-10.2-4
		c-6,0-10.8,5.1-10.8,11.5v0.1c0,6.9,4.8,11.7,11.4,11.7c2.9,0,5.1-0.6,6.7-1.7v-5.1h-8.3v-8.6h19.3v18.9
		c-4.5,3.8-10.5,6.6-18.3,6.6C344,1120.8,334.3,1111.8,334.3,1099z"/>
	<path class="st0" d="M380,1103.8v-0.1c0-9.5,6.8-17,16.4-17c11.2,0,16.4,8.3,16.4,17.8c0,0.7,0,1.6-0.1,2.3H391
		c0.9,3.6,3.4,5.4,7,5.4c2.8,0,4.9-1,7.2-3.3l6.3,5.2c-3.1,4-7.6,6.6-14.1,6.6C387.3,1120.8,380,1113.9,380,1103.8z M402.2,1101
		c-0.4-3.6-2.6-5.9-5.7-5.9c-3.1,0-5,2.3-5.7,5.9H402.2z"/>
	<path class="st0" d="M415.4,1115.8l4.3-6.9c3.8,2.5,7.8,3.7,11.1,3.7c2,0,3-0.6,3-1.7v-0.1c0-1.4-1.9-1.9-5.3-2.8
		c-6.4-1.6-11.6-3.9-11.6-10.4v-0.1c0-6.9,5.6-10.8,13.1-10.8c4.8,0,9.6,1.4,13.4,3.8l-3.9,7.2c-3.4-1.9-7-3.1-9.6-3.1
		c-1.7,0-2.7,0.7-2.7,1.6v0.1c0,1.3,1.9,1.9,5.3,2.9c6.4,1.7,11.6,4,11.6,10.4v0.1c0,7.2-5.4,10.9-13.3,10.9
		C425.2,1120.7,419.9,1119.1,415.4,1115.8z"/>
	<path class="st0" d="M450.2,1109.8v-13.3h-3.9v-9.2h3.9v-8.3h11.4v8.3h7.6v9.2h-7.6v11.1c0,2.3,1,3.3,3.1,3.3c1.5,0,3-0.4,4.3-1.1
		v8.9c-2.1,1.1-4.8,1.9-8,1.9C454.2,1120.6,450.2,1117.6,450.2,1109.8z"/>
	<path class="st0" d="M474.2,1076h11.9v8.4h-11.9V1076z M474.4,1087.4h11.4v32.6h-11.4V1087.4z"/>
	<path class="st0" d="M491,1103.8v-0.1c0-9.3,7.6-17,18-17c10.4,0,18,7.7,18,16.9v0.1c0,9.3-7.7,17-18.1,17
		C498.5,1120.8,491,1113.2,491,1103.8z M515.9,1103.8v-0.1c0-4-2.9-7.4-7-7.4c-4.2,0-6.8,3.3-6.8,7.3v0.1c0,4,2.9,7.3,6.9,7.3
		C513.2,1111.1,515.9,1107.7,515.9,1103.8z M510.8,1073.2l10.6,3.4l-8.9,7.7h-8L510.8,1073.2z"/>
	<path class="st0" d="M531.8,1087.4h11.4v4.6c2.1-2.7,5.1-5.3,9.8-5.3c7,0,11.1,4.5,11.1,12v21.3h-11.4v-17.7c0-3.6-1.8-5.5-4.6-5.5
		c-2.8,0-4.8,1.9-4.8,5.5v17.7h-11.4V1087.4z"/>
	<path class="st0" d="M588.7,1077.8h33.9v9.9h-22.3v6.4h20.2v9.2h-20.2v6.7h22.7v9.9h-34.2V1077.8z"/>
	<path class="st0" d="M628.3,1087.4h11.4v4.5c2.1-2.7,5.1-5.2,9.7-5.2c4.3,0,7.7,1.9,9.4,5.3c2.8-3.3,6.1-5.3,10.9-5.3
		c7,0,11.1,4.3,11.1,11.9v21.4h-11.4v-17.7c0-3.6-1.7-5.5-4.5-5.5c-2.7,0-4.7,1.9-4.7,5.5v17.7h-11.4v-17.7c0-3.6-1.8-5.5-4.5-5.5
		s-4.6,1.9-4.6,5.5v17.7h-11.4V1087.4z"/>
	<path class="st0" d="M686.8,1087.4h11.4v4.3c2.2-2.7,5-5.1,9.9-5.1c7.7,0,14.5,6.4,14.5,16.9v0.1c0,10.6-6.7,17-14.4,17
		c-4.9,0-7.8-2.2-9.9-4.7v13.6h-11.4V1087.4z M711.4,1103.7v-0.1c0-4.3-3.1-7.4-6.7-7.4c-3.7,0-6.7,3.1-6.7,7.4v0.1
		c0,4.3,3,7.4,6.7,7.4C708.3,1111.1,711.4,1108.1,711.4,1103.7z"/>
	<path class="st0" d="M727.5,1087.4h11.4v6.6c1.9-4.4,4.8-7.3,10.3-7.1v12h-1c-6,0-9.3,3.4-9.3,10.9v10.2h-11.4V1087.4z"/>
	<path class="st0" d="M751.4,1103.8v-0.1c0-9.5,6.8-17,16.4-17c11.2,0,16.4,8.3,16.4,17.8c0,0.7,0,1.6-0.1,2.3h-21.8
		c0.9,3.6,3.4,5.4,7,5.4c2.8,0,4.9-1,7.2-3.3l6.3,5.2c-3.1,4-7.6,6.6-14.1,6.6C758.6,1120.8,751.4,1113.9,751.4,1103.8z M773.6,1101
		c-0.4-3.6-2.6-5.9-5.7-5.9c-3.1,0-5,2.3-5.7,5.9H773.6z"/>
	<path class="st0" d="M786.8,1115.8l4.3-6.9c3.8,2.5,7.8,3.7,11.1,3.7c2,0,3-0.6,3-1.7v-0.1c0-1.4-1.9-1.9-5.3-2.8
		c-6.4-1.6-11.6-3.9-11.6-10.4v-0.1c0-6.9,5.6-10.8,13.1-10.8c4.8,0,9.6,1.4,13.4,3.8l-3.9,7.2c-3.4-1.9-7-3.1-9.6-3.1
		c-1.7,0-2.7,0.7-2.7,1.6v0.1c0,1.3,1.9,1.9,5.3,2.9c6.4,1.7,11.6,4,11.6,10.4v0.1c0,7.2-5.4,10.9-13.3,10.9
		C796.6,1120.7,791.3,1119.1,786.8,1115.8z"/>
	<path class="st0" d="M818.6,1110.6v-0.1c0-6.8,5.1-10.2,12.8-10.2c3.1,0,6,0.5,7.8,1.3v-0.5c0-3.4-2.1-5.4-6.5-5.4
		c-3.4,0-6.1,0.7-9,1.8l-2.3-8c3.7-1.5,7.6-2.5,13.2-2.5c5.8,0,9.8,1.4,12.4,4c2.5,2.4,3.5,5.8,3.5,10.4v18.7h-11.3v-3.4
		c-2.3,2.5-5.3,4.2-9.6,4.2C823.3,1120.7,818.6,1117.1,818.6,1110.6z M839.3,1108.2v-1.5c-1.2-0.5-2.8-0.8-4.5-0.8
		c-3.4,0-5.2,1.6-5.2,4v0.1c0,2.2,1.7,3.6,4,3.6C837,1113.5,839.3,1111.5,839.3,1108.2z"/>
	<path class="st0" d="M856.2,1087.4h11.4v6.6c1.9-4.4,4.8-7.3,10.3-7.1v12h-1c-6,0-9.3,3.4-9.3,10.9v10.2h-11.4V1087.4z"/>
	<path class="st0" d="M882.1,1076h11.9v8.4h-11.9V1076z M882.3,1087.4h11.4v32.6h-11.4V1087.4z"/>
	<path class="st0" d="M898.6,1110.6v-0.1c0-6.8,5.1-10.2,12.8-10.2c3.1,0,6,0.5,7.8,1.3v-0.5c0-3.4-2.1-5.4-6.5-5.4
		c-3.4,0-6.1,0.7-9,1.8l-2.3-8c3.7-1.5,7.6-2.5,13.2-2.5c5.8,0,9.8,1.4,12.4,4c2.5,2.4,3.5,5.8,3.5,10.4v18.7h-11.3v-3.4
		c-2.3,2.5-5.3,4.2-9.6,4.2C903.3,1120.7,898.6,1117.1,898.6,1110.6z M919.3,1108.2v-1.5c-1.2-0.5-2.8-0.8-4.5-0.8
		c-3.4,0-5.2,1.6-5.2,4v0.1c0,2.2,1.7,3.6,4,3.6C917,1113.5,919.3,1111.5,919.3,1108.2z"/>
	<path class="st0" d="M936.5,1076h11.4v44h-11.4V1076z"/>
</g>
</svg>
