<?xml version="1.0" encoding="utf-8"?>
<!-- Generator: Adobe Illustrator 27.9.0, SVG Export Plug-In . SVG Version: 6.00 Build 0)  -->
<svg version="1.1" id="Capa_1" xmlns="http://www.w3.org/2000/svg" xmlns:xlink="http://www.w3.org/1999/xlink" x="0px" y="0px"
	 viewBox="0 0 1200 1200" style="enable-background:new 0 0 1200 1200;" xml:space="preserve">
<style type="text/css">
	.st0{fill:#CE172E;}
	.st1{fill:#BFBEBE;}
	.st2{fill:#6D0A16;}
	.st3{fill:#37A6DE;}
	.st4{fill:#FFFFFF;}
	.st5{fill:#070707;}
	.st6{fill:#662482;}
	.st7{fill:#89DB3B;}
	.st8{fill:#0B0B5E;}
</style>
<g>
	<g>
		<path class="st5" d="M416.2,799h44.4v121.4h77.6v38.9H416.2V799z"/>
		<path class="st5" d="M557.5,799H599l66,84.7V799h44v160.3h-38.7l-68.7-87.9v87.9h-44V799z"/>
		<path class="st5" d="M738.4,799h44.4v160.3h-44.4V799z"/>
	</g>
	<g>
		<g>
			<path class="st5" d="M600,748.2c-39.1,0-77-7.7-112.7-22.8c-34.5-14.6-65.5-35.5-92-62.1c-26.6-26.6-47.5-57.6-62.1-92
				c-15.1-35.7-22.8-73.6-22.8-112.7c0-39.1,7.7-77,22.8-112.7c14.6-34.5,35.5-65.5,62.1-92c26.6-26.6,57.6-47.5,92-62.1
				C523,176.7,560.9,169,600,169s77,7.7,112.7,22.8c34.5,14.6,65.5,35.5,92,62.1c26.6,26.6,47.5,57.6,62.1,92
				c15.1,35.7,22.8,73.6,22.8,112.7c0,39.1-7.7,77-22.8,112.7c-14.6,34.5-35.5,65.5-62.1,92c-26.6,26.6-57.6,47.5-92,62.1
				C677,740.5,639.1,748.2,600,748.2z M600,213c-65.6,0-127.3,25.5-173.7,71.9S354.4,393,354.4,458.6c0,65.6,25.5,127.3,71.9,173.7
				s108.1,71.9,173.7,71.9s127.3-25.5,173.7-71.9s71.9-108.1,71.9-173.7c0-65.6-25.5-127.3-71.9-173.7S665.6,213,600,213z"/>
		</g>
		<g>
			<path class="st5" d="M647.8,599.4c-10,0-18.3-8.2-18.3-18.3v-46.2h-35.9c-10,0-18.3-8.2-18.3-18.3v-53.6c0-3.7,1.1-7.1,3-10
				h-20.2h-45h-6c-5.3,0-9.6-4.3-9.6-9.6v-74.4c-2.1-0.1-4.2-0.4-6.2-1v45.5c0,4.3-3.5,7.8-7.8,7.8h-1.6c-4.3,0-7.8-3.5-7.8-7.8
				v-54.1c-21.5,27.3-34.4,61.7-34.4,99.1c0,88.4,71.7,160.1,160.1,160.1c27.6,0,53.6-7,76.2-19.3H647.8z"/>
			<path class="st5" d="M760.1,458.6c0,48.1-21.2,91.2-54.7,120.5V463.1c0-10-8.2-18.3-18.3-18.3h-93.4c-0.8,0-1.6,0.1-2.4,0.2V411
				c0-4.1-3.4-7.5-7.5-7.5h-1.5c-4.1,0-7.5,3.4-7.5,7.5v21.4h-6.9v-63.3h18.3c13.4,0,24.3-11,24.3-24.4v-37.1c0-3.2-0.6-6.2-1.7-8.9
				c14.3,0.8,28.1,3.4,41.1,7.7c-0.5,1.9-0.8,4-0.8,6.1v77c0,13.4,11,24.4,24.4,24.4h77c1.1,0,2.1-0.1,3.2-0.2
				C757.9,428,760.1,443,760.1,458.6z"/>
		</g>
		<g>
			<path class="st5" d="M757.2,318.1c-2.5-6.8-9.1-11.7-16.7-11.7h-53.6c-7.7,0-14.2,4.9-16.7,11.7H757.2z"/>
			<path class="st5" d="M669.1,324.2v13.1h41.8h5.6h41.8v-13.1c0-0.2,0-0.3,0-0.5h-89.2C669.1,323.9,669.1,324,669.1,324.2z"/>
			<path class="st5" d="M716.5,342.9v52.7h24c9.8,0,17.8-8,17.8-17.8v-34.9H716.5z"/>
			<path class="st5" d="M710.9,342.9h-41.8v34.9c0,9.8,8,17.8,17.8,17.8h24V342.9z"/>
		</g>
		<g>
			<path class="st1" d="M824.8,480.7c-5.9,60-34.8,114.2-81.4,152.5c-46.6,38.3-105.3,56.1-165.4,50.2
				c-60-5.9-114.2-34.8-152.5-81.4c-38.3-46.6-56.1-105.3-50.2-165.4c5.9-60,34.8-114.2,81.4-152.5c42-34.5,93.9-52.4,147.7-51.3
				c5.9,0.1,11.8,0.5,17.7,1c5.9,0.6,11.8,1.4,17.6,2.4c6.2,5.9,9.7,14.5,8.8,23.6c-0.9,9.6-6.5,17.7-14.3,22.1
				c-5.4-1-10.9-1.8-16.5-2.4s-11.1-0.8-16.6-0.9c-41.9-0.3-82.3,13.9-115.1,40.9c-37.1,30.5-60.2,73.6-64.9,121.4
				c-4.7,47.8,9.5,94.6,40,131.7c30.5,37.1,73.6,60.2,121.4,64.9c47.8,4.7,94.6-9.5,131.7-40c37.1-30.5,60.2-73.6,64.9-121.4
				c1.5-15.2,1.1-30.3-1.2-45l19.9-24.7l25.7,18.8c0.5,3.5,1,7,1.3,10.6C826.2,450.5,826.2,465.6,824.8,480.7z"/>
		</g>
	</g>
</g>
<g>
	<path d="M216.9,1005.5h11.7v31.9H249v10.2h-32.1V1005.5z"/>
	<path d="M253.5,1003.7h11.9v8.4h-11.9V1003.7z M253.7,1015.1h11.4v32.6h-11.4V1015.1z"/>
	<path d="M270.3,1031.5v-0.1c0-9.2,7.1-17,17.4-17c6.7,0,11.1,2.9,13.9,7.2l-7.7,5.8c-1.6-2.1-3.4-3.4-6.1-3.4
		c-3.7,0-6.4,3.3-6.4,7.3v0.1c0,4.2,2.7,7.4,6.5,7.4c2.8,0,4.5-1.3,6.3-3.4l7.7,5.5c-3.1,4.5-7.3,7.5-14.5,7.5
		C277.5,1048.5,270.3,1040.8,270.3,1031.5z"/>
	<path d="M303.7,1031.5v-0.1c0-9.5,6.8-17,16.4-17c11.2,0,16.4,8.3,16.4,17.8c0,0.7,0,1.6-0.1,2.3h-21.8c0.9,3.6,3.4,5.4,7,5.4
		c2.8,0,4.9-1,7.2-3.3l6.3,5.2c-3.1,4-7.6,6.6-14.1,6.6C310.9,1048.5,303.7,1041.6,303.7,1031.5z M325.8,1028.7
		c-0.4-3.6-2.6-5.9-5.7-5.9c-3.1,0-5,2.3-5.7,5.9H325.8z"/>
	<path d="M341.4,1015.1h11.4v4.6c2.1-2.7,5.1-5.3,9.8-5.3c7,0,11.1,4.5,11.1,12v21.3h-11.4V1030c0-3.6-1.8-5.5-4.6-5.5
		c-2.8,0-4.8,1.9-4.8,5.5v17.7h-11.4V1015.1z"/>
	<path d="M378.4,1031.5v-0.1c0-9.2,7.1-17,17.4-17c6.7,0,11.1,2.9,13.9,7.2l-7.7,5.8c-1.6-2.1-3.4-3.4-6.1-3.4
		c-3.7,0-6.4,3.3-6.4,7.3v0.1c0,4.2,2.7,7.4,6.5,7.4c2.8,0,4.5-1.3,6.3-3.4l7.7,5.5c-3.1,4.5-7.3,7.5-14.5,7.5
		C385.5,1048.5,378.4,1040.8,378.4,1031.5z"/>
	<path d="M414,1003.7h11.9v8.4H414V1003.7z M414.2,1015.1h11.4v32.6h-11.4V1015.1z"/>
	<path d="M430.5,1038.3v-0.1c0-6.8,5.1-10.2,12.8-10.2c3.1,0,6,0.5,7.8,1.3v-0.5c0-3.4-2.1-5.4-6.5-5.4c-3.4,0-6.1,0.7-9,1.8l-2.3-8
		c3.7-1.5,7.6-2.5,13.2-2.5c5.8,0,9.8,1.4,12.4,4c2.5,2.4,3.5,5.8,3.5,10.4v18.7H451v-3.4c-2.3,2.5-5.3,4.2-9.6,4.2
		C435.2,1048.4,430.5,1044.8,430.5,1038.3z M451.2,1035.9v-1.5c-1.2-0.5-2.8-0.8-4.5-0.8c-3.4,0-5.2,1.6-5.2,4v0.1
		c0,2.2,1.7,3.6,4,3.6C448.8,1041.2,451.2,1039.2,451.2,1035.9z"/>
	<path d="M469.9,1037.6v-13.3H466v-9.2h3.9v-8.3h11.4v8.3h7.6v9.2h-7.6v11.1c0,2.3,1,3.3,3.1,3.3c1.5,0,3-0.4,4.3-1.1v8.9
		c-2.1,1.1-4.8,1.9-8,1.9C473.8,1048.3,469.9,1045.3,469.9,1037.6z"/>
	<path d="M493.5,1036.4v-21.3H505v17.7c0,3.6,1.8,5.5,4.6,5.5c2.8,0,4.8-1.9,4.8-5.5v-17.7h11.4v32.6h-11.4v-4.5
		c-2,2.7-5.1,5.2-9.8,5.2C497.7,1048.4,493.5,1043.8,493.5,1036.4z"/>
	<path d="M532,1015.1h11.4v6.6c1.9-4.4,4.8-7.3,10.3-7.1v12h-1c-6,0-9.3,3.4-9.3,10.9v10.2H532V1015.1z"/>
	<path d="M554.7,1038.3v-0.1c0-6.8,5.1-10.2,12.8-10.2c3.1,0,6,0.5,7.8,1.3v-0.5c0-3.4-2.1-5.4-6.5-5.4c-3.4,0-6.1,0.7-9,1.8l-2.3-8
		c3.7-1.5,7.6-2.5,13.2-2.5c5.8,0,9.8,1.4,12.4,4c2.5,2.4,3.5,5.8,3.5,10.4v18.7h-11.3v-3.4c-2.3,2.5-5.3,4.2-9.6,4.2
		C559.4,1048.4,554.7,1044.8,554.7,1038.3z M575.4,1035.9v-1.5c-1.2-0.5-2.8-0.8-4.5-0.8c-3.4,0-5.2,1.6-5.2,4v0.1
		c0,2.2,1.7,3.6,4,3.6C573,1041.2,575.4,1039.2,575.4,1035.9z"/>
	<path d="M609.1,1031.5v-0.1c0-9.5,6.8-17,16.4-17c11.2,0,16.4,8.3,16.4,17.8c0,0.7,0,1.6-0.1,2.3h-21.8c0.9,3.6,3.4,5.4,7,5.4
		c2.8,0,4.9-1,7.2-3.3l6.3,5.2c-3.1,4-7.6,6.6-14.1,6.6C616.4,1048.5,609.1,1041.6,609.1,1031.5z M631.3,1028.7
		c-0.4-3.6-2.6-5.9-5.7-5.9c-3.1,0-5,2.3-5.7,5.9H631.3z"/>
	<path d="M646.9,1015.1h11.4v4.6c2.1-2.7,5.1-5.3,9.8-5.3c7,0,11.1,4.5,11.1,12v21.3h-11.4V1030c0-3.6-1.8-5.5-4.6-5.5
		c-2.8,0-4.8,1.9-4.8,5.5v17.7h-11.4V1015.1z"/>
	<path d="M703.8,1005.5h10.9l17.3,22.3v-22.3h11.6v42.2h-10.2l-18.1-23.1v23.1h-11.6V1005.5z"/>
	<path d="M749.2,1031.5v-0.1c0-9.5,6.8-17,16.4-17c11.2,0,16.4,8.3,16.4,17.8c0,0.7,0,1.6-0.1,2.3h-21.8c0.9,3.6,3.4,5.4,7,5.4
		c2.8,0,4.9-1,7.2-3.3l6.3,5.2c-3.1,4-7.6,6.6-14.1,6.6C756.4,1048.5,749.2,1041.6,749.2,1031.5z M771.3,1028.7
		c-0.4-3.6-2.6-5.9-5.7-5.9c-3.1,0-5,2.3-5.7,5.9H771.3z"/>
	<path d="M786.7,1053.7l3.7-7.6c3.6,1.9,7,3.1,11.4,3.1c5.7,0,8.5-2.8,8.5-8v-1.3c-2.3,2.7-5.2,4.9-10,4.9c-8,0-14.5-5.8-14.5-15.1
		v-0.1c0-9.4,6.6-15.2,14.1-15.2c5,0,7.8,2,10.2,4.6v-3.9h11.4v24.8c0,5.9-1.4,10.2-4.2,13c-3,3.1-7.5,4.6-14.3,4.6
		C796.7,1057.4,791.5,1056.1,786.7,1053.7z M810.3,1029.7v-0.1c0-3.6-2.8-6.3-6.7-6.3c-3.9,0-6.7,2.7-6.7,6.4v0.1
		c0,3.6,2.8,6.3,6.7,6.3C807.6,1036,810.3,1033.3,810.3,1029.7z"/>
	<path d="M826.4,1031.5v-0.1c0-9.3,7.6-17,18-17s18,7.7,18,16.9v0.1c0,9.3-7.7,17-18.1,17C833.9,1048.5,826.4,1040.9,826.4,1031.5z
		 M851.3,1031.5v-0.1c0-4-2.9-7.4-7-7.4c-4.2,0-6.8,3.3-6.8,7.3v0.1c0,4,2.9,7.3,6.9,7.3C848.6,1038.8,851.3,1035.5,851.3,1031.5z"
		/>
	<path d="M865.9,1031.5v-0.1c0-9.2,7.1-17,17.4-17c6.7,0,11.1,2.9,13.9,7.2l-7.7,5.8c-1.6-2.1-3.4-3.4-6.1-3.4
		c-3.7,0-6.4,3.3-6.4,7.3v0.1c0,4.2,2.7,7.4,6.5,7.4c2.8,0,4.5-1.3,6.3-3.4l7.7,5.5c-3.1,4.5-7.3,7.5-14.5,7.5
		C873.1,1048.5,865.9,1040.8,865.9,1031.5z"/>
	<path d="M901.5,1003.7h11.9v8.4h-11.9V1003.7z M901.8,1015.1h11.4v32.6h-11.4V1015.1z"/>
	<path d="M918.3,1031.5v-0.1c0-9.3,7.6-17,18-17c10.4,0,18,7.7,18,16.9v0.1c0,9.3-7.7,17-18.1,17
		C925.9,1048.5,918.3,1040.9,918.3,1031.5z M943.2,1031.5v-0.1c0-4-2.9-7.4-7-7.4c-4.2,0-6.8,3.3-6.8,7.3v0.1c0,4,2.9,7.3,6.9,7.3
		C940.5,1038.8,943.2,1035.5,943.2,1031.5z"/>
	<path d="M956.5,1043.5l4.3-6.9c3.8,2.5,7.8,3.7,11.1,3.7c2,0,3-0.6,3-1.7v-0.1c0-1.4-1.9-1.9-5.3-2.8c-6.4-1.6-11.6-3.9-11.6-10.4
		v-0.1c0-6.9,5.6-10.8,13.1-10.8c4.8,0,9.6,1.4,13.4,3.8l-3.9,7.2c-3.4-1.9-7-3.1-9.6-3.1c-1.7,0-2.7,0.7-2.7,1.6v0.1
		c0,1.3,1.9,1.9,5.3,2.9c6.4,1.7,11.6,4,11.6,10.4v0.1c0,7.2-5.4,10.9-13.3,10.9C966.3,1048.4,961,1046.8,956.5,1043.5z"/>
	<path d="M368.4,1077.8h11.7v42.2h-11.7V1077.8z"/>
	<path d="M387.1,1087.4h11.4v4.6c2.1-2.7,5.1-5.3,9.8-5.3c7,0,11.1,4.5,11.1,12v21.3H408v-17.7c0-3.6-1.8-5.5-4.6-5.5
		s-4.8,1.9-4.8,5.5v17.7h-11.4V1087.4z"/>
	<path d="M427.4,1109.8v-13.3h-3.9v-9.2h3.9v-8.3h11.4v8.3h7.6v9.2h-7.6v11.1c0,2.3,1,3.3,3.1,3.3c1.5,0,3-0.4,4.3-1.1v8.9
		c-2.1,1.1-4.8,1.9-8,1.9C431.3,1120.6,427.4,1117.6,427.4,1109.8z"/>
	<path d="M449.1,1103.8v-0.1c0-9.5,6.8-17,16.4-17c11.2,0,16.4,8.3,16.4,17.8c0,0.7,0,1.6-0.1,2.3h-21.8c0.9,3.6,3.4,5.4,7,5.4
		c2.8,0,4.9-1,7.2-3.3l6.3,5.2c-3.1,4-7.6,6.6-14.1,6.6C456.3,1120.8,449.1,1113.9,449.1,1103.8z M471.3,1101
		c-0.4-3.6-2.6-5.9-5.7-5.9c-3.1,0-5,2.3-5.7,5.9H471.3z"/>
	<path d="M486.9,1087.4h11.4v6.6c1.9-4.4,4.8-7.3,10.3-7.1v12h-1c-6,0-9.3,3.4-9.3,10.9v10.2h-11.4V1087.4z"/>
	<path d="M512.7,1087.4h11.4v4.6c2.1-2.7,5.1-5.3,9.8-5.3c7,0,11.1,4.5,11.1,12v21.3h-11.4v-17.7c0-3.6-1.8-5.5-4.6-5.5
		c-2.8,0-4.8,1.9-4.8,5.5v17.7h-11.4V1087.4z"/>
	<path d="M549.3,1110.6v-0.1c0-6.8,5.1-10.2,12.8-10.2c3.1,0,6,0.5,7.8,1.3v-0.5c0-3.4-2.1-5.4-6.5-5.4c-3.4,0-6.1,0.7-9,1.8l-2.3-8
		c3.7-1.5,7.6-2.5,13.2-2.5c5.8,0,9.8,1.4,12.4,4c2.5,2.4,3.5,5.8,3.5,10.4v18.7h-11.3v-3.4c-2.3,2.5-5.3,4.2-9.6,4.2
		C554,1120.7,549.3,1117.1,549.3,1110.6z M570,1108.2v-1.5c-1.2-0.5-2.8-0.8-4.5-0.8c-3.4,0-5.2,1.6-5.2,4v0.1c0,2.2,1.7,3.6,4,3.6
		C567.7,1113.5,570,1111.5,570,1108.2z"/>
	<path d="M585.7,1103.8v-0.1c0-9.2,7.1-17,17.4-17c6.7,0,11.1,2.9,13.9,7.2l-7.7,5.8c-1.6-2.1-3.4-3.4-6.1-3.4
		c-3.7,0-6.4,3.3-6.4,7.3v0.1c0,4.2,2.7,7.4,6.5,7.4c2.8,0,4.5-1.3,6.3-3.4l7.7,5.5c-3.1,4.5-7.3,7.5-14.5,7.5
		C592.8,1120.8,585.7,1113,585.7,1103.8z"/>
	<path d="M621.3,1076h11.9v8.4h-11.9V1076z M621.5,1087.4h11.4v32.6h-11.4V1087.4z"/>
	<path d="M638.1,1103.8v-0.1c0-9.3,7.6-17,18-17s18,7.7,18,16.9v0.1c0,9.3-7.7,17-18.1,17C645.6,1120.8,638.1,1113.2,638.1,1103.8z
		 M663,1103.8v-0.1c0-4-2.9-7.4-7-7.4c-4.2,0-6.8,3.3-6.8,7.3v0.1c0,4,2.9,7.3,6.9,7.3C660.2,1111.1,663,1107.7,663,1103.8z"/>
	<path d="M678.9,1087.4h11.4v4.6c2.1-2.7,5.1-5.3,9.8-5.3c7,0,11.1,4.5,11.1,12v21.3h-11.4v-17.7c0-3.6-1.8-5.5-4.6-5.5
		s-4.8,1.9-4.8,5.5v17.7h-11.4V1087.4z"/>
	<path d="M715.5,1110.6v-0.1c0-6.8,5.1-10.2,12.8-10.2c3.1,0,6,0.5,7.8,1.3v-0.5c0-3.4-2.1-5.4-6.5-5.4c-3.4,0-6.1,0.7-9,1.8l-2.3-8
		c3.7-1.5,7.6-2.5,13.2-2.5c5.8,0,9.8,1.4,12.4,4c2.5,2.4,3.5,5.8,3.5,10.4v18.7H736v-3.4c-2.3,2.5-5.3,4.2-9.6,4.2
		C720.2,1120.7,715.5,1117.1,715.5,1110.6z M736.2,1108.2v-1.5c-1.2-0.5-2.8-0.8-4.5-0.8c-3.4,0-5.2,1.6-5.2,4v0.1
		c0,2.2,1.7,3.6,4,3.6C733.9,1113.5,736.2,1111.5,736.2,1108.2z"/>
	<path d="M753.4,1076h11.4v44h-11.4V1076z"/>
	<path d="M770,1103.8v-0.1c0-9.5,6.8-17,16.4-17c11.2,0,16.4,8.3,16.4,17.8c0,0.7,0,1.6-0.1,2.3H781c0.9,3.6,3.4,5.4,7,5.4
		c2.8,0,4.9-1,7.2-3.3l6.3,5.2c-3.1,4-7.6,6.6-14.1,6.6C777.2,1120.8,770,1113.9,770,1103.8z M792.2,1101c-0.4-3.6-2.6-5.9-5.7-5.9
		c-3.1,0-5,2.3-5.7,5.9H792.2z"/>
	<path d="M805.4,1115.8l4.3-6.9c3.8,2.5,7.8,3.7,11.1,3.7c2,0,3-0.6,3-1.7v-0.1c0-1.4-1.9-1.9-5.3-2.8c-6.4-1.6-11.6-3.9-11.6-10.4
		v-0.1c0-6.9,5.6-10.8,13.1-10.8c4.8,0,9.6,1.4,13.4,3.8l-3.9,7.2c-3.4-1.9-7-3.1-9.6-3.1c-1.7,0-2.7,0.7-2.7,1.6v0.1
		c0,1.3,1.9,1.9,5.3,2.9c6.4,1.7,11.6,4,11.6,10.4v0.1c0,7.2-5.4,10.9-13.3,10.9C815.2,1120.7,809.9,1119.1,805.4,1115.8z"/>
</g>
</svg>
